<!--
  ~ Copyright (c) 2026, WSO2 LLC. (https://www.wso2.com).
  ~
  ~ WSO2 LLC. licenses this file to you under the Apache License,
  ~ Version 2.0 (the "License"); you may not use this file except
  ~ in compliance with the License.
  ~ You may obtain a copy of the License at
  ~
  ~     http://www.apache.org/licenses/LICENSE-2.0
  ~
  ~ Unless required by applicable law or agreed to in writing,
  ~ software distributed under the License is distributed on an
  ~ "AS IS" BASIS, WITHOUT WARRANTIES OR CONDITIONS OF ANY
  ~ KIND, either express or implied. See the License for the
  ~ specific language governing permissions and limitations
  ~ under the License.
-->

<svg width="548" height="279" viewBox="0 0 548 279" fill="none" xmlns="http://www.w3.org/2000/svg">
  <g clip-path="url(#clip0_39_258)">
  <path d="M268.824 161.608H253.432C249.35 161.608 245.435 159.986 242.548 157.1C239.662 154.213 238.04 150.298 238.04 146.216V115.432C238.04 111.35 239.662 107.435 242.548 104.548C245.435 101.662 249.35 100.04 253.432 100.04H376.568C380.65 100.04 384.565 101.662 387.452 104.548C390.338 107.435 391.96 111.35 391.96 115.432V146.216C391.96 150.298 390.338 154.213 387.452 157.1C384.565 159.986 380.65 161.608 376.568 161.608H361.176M268.824 192.392H253.432C249.35 192.392 245.435 194.014 242.548 196.9C239.662 199.787 238.04 203.702 238.04 207.784V238.568C238.04 242.65 239.662 246.565 242.548 249.452C245.435 252.338 249.35 253.96 253.432 253.96H376.568C380.65 253.96 384.565 252.338 387.452 249.452C390.338 246.565 391.96 242.65 391.96 238.568V207.784C391.96 203.702 390.338 199.787 387.452 196.9C384.565 194.014 380.65 192.392 376.568 192.392H361.176M268.824 130.824H268.901M268.824 223.176H268.901" stroke="currentColor" stroke-width="2" stroke-linecap="round" stroke-linejoin="round"/>
  <path d="M322.696 130.824L291.912 177H338.088L307.304 223.176" stroke="primary" stroke-width="2" stroke-linecap="round" stroke-linejoin="round"/>
  <path d="M309.202 78V66.3636H313.566C314.46 66.3636 315.21 66.5189 315.816 66.8295C316.426 67.1402 316.886 67.5758 317.197 68.1364C317.511 68.6932 317.668 69.3428 317.668 70.0852C317.668 70.8314 317.509 71.4792 317.191 72.0284C316.877 72.5739 316.413 72.9962 315.799 73.2955C315.185 73.5909 314.432 73.7386 313.538 73.7386H310.43V71.9886H313.254C313.776 71.9886 314.204 71.9167 314.538 71.7727C314.871 71.625 315.117 71.411 315.276 71.1307C315.439 70.8466 315.521 70.4981 315.521 70.0852C315.521 69.6723 315.439 69.3201 315.276 69.0284C315.113 68.733 314.865 68.5095 314.532 68.358C314.199 68.2027 313.769 68.125 313.242 68.125H311.31V78H309.202ZM315.214 72.7273L318.094 78H315.742L312.913 72.7273H315.214ZM325.08 74.3295V69.2727H327.137V78H325.143V76.4489H325.052C324.855 76.9375 324.531 77.3371 324.08 77.6477C323.633 77.9583 323.082 78.1136 322.427 78.1136C321.855 78.1136 321.349 77.9867 320.91 77.733C320.474 77.4754 320.133 77.1023 319.887 76.6136C319.641 76.1212 319.518 75.5265 319.518 74.8295V69.2727H321.575V74.5114C321.575 75.0644 321.726 75.5038 322.029 75.8295C322.332 76.1553 322.73 76.3182 323.222 76.3182C323.525 76.3182 323.819 76.2443 324.103 76.0966C324.387 75.9489 324.62 75.7292 324.802 75.4375C324.987 75.142 325.08 74.7727 325.08 74.3295ZM331.309 72.8864V78H329.252V69.2727H331.218V70.7557H331.32C331.521 70.267 331.841 69.8788 332.281 69.5909C332.724 69.303 333.271 69.1591 333.923 69.1591C334.525 69.1591 335.049 69.2879 335.496 69.5455C335.947 69.803 336.296 70.1761 336.542 70.6648C336.792 71.1534 336.915 71.7462 336.911 72.4432V78H334.854V72.7614C334.854 72.178 334.703 71.7216 334.4 71.392C334.101 71.0625 333.686 70.8977 333.156 70.8977C332.796 70.8977 332.476 70.9773 332.195 71.1364C331.919 71.2917 331.701 71.517 331.542 71.8125C331.387 72.108 331.309 72.4659 331.309 72.8864Z" fill="muted"/>
  <path d="M1.05682 276V267.273H4.00568C4.69034 267.273 5.25 267.396 5.68466 267.643C6.12216 267.888 6.44602 268.219 6.65625 268.636C6.86648 269.054 6.97159 269.52 6.97159 270.034C6.97159 270.548 6.86648 271.016 6.65625 271.436C6.44886 271.857 6.12784 272.192 5.69318 272.442C5.25852 272.689 4.7017 272.812 4.02273 272.812H1.90909V271.875H3.98864C4.45739 271.875 4.83381 271.794 5.1179 271.632C5.40199 271.47 5.60795 271.251 5.7358 270.976C5.86648 270.697 5.93182 270.384 5.93182 270.034C5.93182 269.685 5.86648 269.372 5.7358 269.097C5.60795 268.821 5.40057 268.605 5.11364 268.449C4.8267 268.29 4.44602 268.21 3.97159 268.21H2.11364V276H1.05682ZM8.53764 276V269.455H9.50923V270.443H9.57741C9.69673 270.119 9.91264 269.857 10.2251 269.655C10.5376 269.453 10.8899 269.352 11.282 269.352C11.3558 269.352 11.4482 269.354 11.5589 269.357C11.6697 269.359 11.7536 269.364 11.8104 269.369V270.392C11.7763 270.384 11.6982 270.371 11.576 270.354C11.4567 270.334 11.3303 270.324 11.1967 270.324C10.8786 270.324 10.5945 270.391 10.3445 270.524C10.0973 270.655 9.90128 270.837 9.75639 271.07C9.61435 271.3 9.54332 271.562 9.54332 271.858V276H8.53764ZM15.4624 276.136C14.8714 276.136 14.353 275.996 13.907 275.714C13.4638 275.433 13.1172 275.04 12.8672 274.534C12.62 274.028 12.4964 273.437 12.4964 272.761C12.4964 272.08 12.62 271.484 12.8672 270.976C13.1172 270.467 13.4638 270.072 13.907 269.791C14.353 269.51 14.8714 269.369 15.4624 269.369C16.0533 269.369 16.5703 269.51 17.0135 269.791C17.4595 270.072 17.8061 270.467 18.0533 270.976C18.3033 271.484 18.4283 272.08 18.4283 272.761C18.4283 273.437 18.3033 274.028 18.0533 274.534C17.8061 275.04 17.4595 275.433 17.0135 275.714C16.5703 275.996 16.0533 276.136 15.4624 276.136ZM15.4624 275.233C15.9112 275.233 16.2805 275.118 16.5703 274.888C16.8601 274.658 17.0746 274.355 17.2138 273.98C17.353 273.605 17.4226 273.199 17.4226 272.761C17.4226 272.324 17.353 271.916 17.2138 271.538C17.0746 271.161 16.8601 270.855 16.5703 270.622C16.2805 270.389 15.9112 270.273 15.4624 270.273C15.0135 270.273 14.6442 270.389 14.3544 270.622C14.0646 270.855 13.8501 271.161 13.7109 271.538C13.5717 271.916 13.5021 272.324 13.5021 272.761C13.5021 273.199 13.5717 273.605 13.7109 273.98C13.8501 274.355 14.0646 274.658 14.3544 274.888C14.6442 275.118 15.0135 275.233 15.4624 275.233ZM19.9634 269.455H20.9691V276.477C20.9691 276.881 20.8995 277.23 20.7603 277.526C20.6239 277.821 20.4165 278.05 20.1381 278.212C19.8626 278.374 19.5146 278.455 19.0941 278.455C19.06 278.455 19.0259 278.455 18.9918 278.455C18.9577 278.455 18.9237 278.455 18.8896 278.455V277.517C18.9237 277.517 18.9549 277.517 18.9833 277.517C19.0117 277.517 19.043 277.517 19.0771 277.517C19.3839 277.517 19.6083 277.426 19.7504 277.244C19.8924 277.065 19.9634 276.81 19.9634 276.477V269.455ZM20.4577 268.364C20.2617 268.364 20.0927 268.297 19.9506 268.163C19.8114 268.03 19.7418 267.869 19.7418 267.682C19.7418 267.494 19.8114 267.334 19.9506 267.2C20.0927 267.067 20.2617 267 20.4577 267C20.6538 267 20.8214 267.067 20.9606 267.2C21.1026 267.334 21.1737 267.494 21.1737 267.682C21.1737 267.869 21.1026 268.03 20.9606 268.163C20.8214 268.297 20.6538 268.364 20.4577 268.364ZM25.5554 276.136C24.9247 276.136 24.3807 275.997 23.9233 275.719C23.4688 275.438 23.1179 275.045 22.8707 274.543C22.6264 274.037 22.5043 273.449 22.5043 272.778C22.5043 272.108 22.6264 271.517 22.8707 271.006C23.1179 270.491 23.4616 270.091 23.902 269.804C24.3452 269.514 24.8622 269.369 25.4531 269.369C25.794 269.369 26.1307 269.426 26.4631 269.54C26.7955 269.653 27.098 269.838 27.3707 270.094C27.6435 270.347 27.8608 270.682 28.0227 271.099C28.1847 271.517 28.2656 272.031 28.2656 272.642V273.068H23.2202V272.199H27.2429C27.2429 271.83 27.169 271.5 27.0213 271.21C26.8764 270.92 26.669 270.692 26.3991 270.524C26.1321 270.357 25.8168 270.273 25.4531 270.273C25.0526 270.273 24.706 270.372 24.4134 270.571C24.1236 270.767 23.9006 271.023 23.7443 271.338C23.5881 271.653 23.5099 271.991 23.5099 272.352V272.932C23.5099 273.426 23.5952 273.845 23.7656 274.189C23.9389 274.53 24.179 274.79 24.4858 274.969C24.7926 275.145 25.1491 275.233 25.5554 275.233C25.8196 275.233 26.0582 275.196 26.2713 275.122C26.4872 275.045 26.6733 274.932 26.8295 274.781C26.9858 274.628 27.1065 274.437 27.1918 274.21L28.1634 274.483C28.0611 274.812 27.8892 275.102 27.6477 275.352C27.4063 275.599 27.108 275.793 26.7528 275.932C26.3977 276.068 25.9986 276.136 25.5554 276.136ZM32.4545 276.136C31.8409 276.136 31.3125 275.991 30.8693 275.702C30.4261 275.412 30.0852 275.013 29.8466 274.504C29.608 273.996 29.4886 273.415 29.4886 272.761C29.4886 272.097 29.6108 271.51 29.8551 271.001C30.1023 270.49 30.446 270.091 30.8864 269.804C31.3295 269.514 31.8466 269.369 32.4375 269.369C32.8977 269.369 33.3125 269.455 33.6818 269.625C34.0511 269.795 34.3537 270.034 34.5895 270.341C34.8253 270.648 34.9716 271.006 35.0284 271.415H34.0227C33.946 271.116 33.7756 270.852 33.5114 270.622C33.25 270.389 32.8977 270.273 32.4545 270.273C32.0625 270.273 31.7188 270.375 31.4233 270.58C31.1307 270.781 30.902 271.067 30.7372 271.436C30.5753 271.803 30.4943 272.233 30.4943 272.727C30.4943 273.233 30.5739 273.673 30.733 274.048C30.8949 274.423 31.1222 274.714 31.4148 274.922C31.7102 275.129 32.0568 275.233 32.4545 275.233C32.7159 275.233 32.9531 275.188 33.1662 275.097C33.3793 275.006 33.5597 274.875 33.7074 274.705C33.8551 274.534 33.9602 274.33 34.0227 274.091H35.0284C34.9716 274.477 34.831 274.825 34.6065 275.135C34.3849 275.442 34.0909 275.686 33.7244 275.868C33.3608 276.047 32.9375 276.136 32.4545 276.136ZM39.3452 269.455V270.307H35.9531V269.455H39.3452ZM36.9418 267.886H37.9474V274.125C37.9474 274.409 37.9886 274.622 38.071 274.764C38.1563 274.903 38.2642 274.997 38.3949 275.045C38.5284 275.091 38.669 275.114 38.8168 275.114C38.9276 275.114 39.0185 275.108 39.0895 275.097C39.1605 275.082 39.2173 275.071 39.2599 275.062L39.4645 275.966C39.3963 275.991 39.3011 276.017 39.179 276.043C39.0568 276.071 38.902 276.085 38.7145 276.085C38.4304 276.085 38.152 276.024 37.8793 275.902C37.6094 275.78 37.3849 275.594 37.206 275.344C37.0298 275.094 36.9418 274.778 36.9418 274.398V267.886ZM46.7898 274.466V268.841H47.7443V274.466H46.7898ZM44.4545 272.131V271.176H50.0795V272.131H44.4545ZM55.6545 276V267.273H60.9215V268.21H56.7113V271.159H60.6488V272.097H56.7113V275.062H60.9897V276H55.6545ZM69.7468 267.273V276H68.7241L63.9684 269.148H63.8832V276H62.8263V267.273H63.8491L68.6218 274.142H68.707V267.273H69.7468ZM72.2195 267.273L74.8104 274.619H74.9126L77.5036 267.273H78.6115L75.407 276H74.3161L71.1115 267.273H72.2195ZM90.3686 270H89.3118C89.2493 269.696 89.1399 269.429 88.9837 269.199C88.8303 268.969 88.6428 268.776 88.4212 268.619C88.2024 268.46 87.9595 268.341 87.6925 268.261C87.4254 268.182 87.147 268.142 86.8572 268.142C86.3288 268.142 85.8501 268.276 85.4212 268.543C84.995 268.81 84.6555 269.203 84.4027 269.723C84.1527 270.243 84.0277 270.881 84.0277 271.636C84.0277 272.392 84.1527 273.03 84.4027 273.55C84.6555 274.07 84.995 274.463 85.4212 274.73C85.8501 274.997 86.3288 275.131 86.8572 275.131C87.147 275.131 87.4254 275.091 87.6925 275.011C87.9595 274.932 88.2024 274.814 88.4212 274.658C88.6428 274.499 88.8303 274.304 88.9837 274.074C89.1399 273.841 89.2493 273.574 89.3118 273.273H90.3686C90.2891 273.719 90.1442 274.118 89.9339 274.47C89.7237 274.822 89.4624 275.122 89.1499 275.369C88.8374 275.614 88.4865 275.8 88.0973 275.928C87.7109 276.055 87.2976 276.119 86.8572 276.119C86.1129 276.119 85.451 275.938 84.8714 275.574C84.2919 275.21 83.8359 274.693 83.5036 274.023C83.1712 273.352 83.005 272.557 83.005 271.636C83.005 270.716 83.1712 269.92 83.5036 269.25C83.8359 268.58 84.2919 268.062 84.8714 267.699C85.451 267.335 86.1129 267.153 86.8572 267.153C87.2976 267.153 87.7109 267.217 88.0973 267.345C88.4865 267.473 88.8374 267.661 89.1499 267.908C89.4624 268.152 89.7237 268.45 89.9339 268.803C90.1442 269.152 90.2891 269.551 90.3686 270ZM94.5991 276.136C94.0082 276.136 93.4897 275.996 93.0437 275.714C92.6005 275.433 92.2539 275.04 92.0039 274.534C91.7567 274.028 91.6332 273.437 91.6332 272.761C91.6332 272.08 91.7567 271.484 92.0039 270.976C92.2539 270.467 92.6005 270.072 93.0437 269.791C93.4897 269.51 94.0082 269.369 94.5991 269.369C95.19 269.369 95.707 269.51 96.1502 269.791C96.5962 270.072 96.9428 270.467 97.19 270.976C97.44 271.484 97.565 272.08 97.565 272.761C97.565 273.437 97.44 274.028 97.19 274.534C96.9428 275.04 96.5962 275.433 96.1502 275.714C95.707 275.996 95.19 276.136 94.5991 276.136ZM94.5991 275.233C95.0479 275.233 95.4173 275.118 95.707 274.888C95.9968 274.658 96.2113 274.355 96.3505 273.98C96.4897 273.605 96.5593 273.199 96.5593 272.761C96.5593 272.324 96.4897 271.916 96.3505 271.538C96.2113 271.161 95.9968 270.855 95.707 270.622C95.4173 270.389 95.0479 270.273 94.5991 270.273C94.1502 270.273 93.7809 270.389 93.4911 270.622C93.2013 270.855 92.9869 271.161 92.8477 271.538C92.7085 271.916 92.6388 272.324 92.6388 272.761C92.6388 273.199 92.7085 273.605 92.8477 273.98C92.9869 274.355 93.2013 274.658 93.4911 274.888C93.7809 275.118 94.1502 275.233 94.5991 275.233ZM100.106 272.062V276H99.1001V269.455H100.072V270.477H100.157C100.31 270.145 100.543 269.878 100.856 269.676C101.168 269.472 101.572 269.369 102.066 269.369C102.509 269.369 102.897 269.46 103.229 269.642C103.562 269.821 103.82 270.094 104.005 270.46C104.19 270.824 104.282 271.284 104.282 271.841V276H103.276V271.909C103.276 271.395 103.143 270.994 102.876 270.707C102.609 270.418 102.242 270.273 101.776 270.273C101.455 270.273 101.168 270.342 100.915 270.482C100.665 270.621 100.468 270.824 100.323 271.091C100.178 271.358 100.106 271.682 100.106 272.062ZM109.034 269.455V270.307H105.506V269.455H109.034ZM106.563 276V268.551C106.563 268.176 106.651 267.864 106.827 267.614C107.003 267.364 107.232 267.176 107.513 267.051C107.794 266.926 108.091 266.864 108.404 266.864C108.651 266.864 108.853 266.884 109.009 266.923C109.165 266.963 109.282 267 109.358 267.034L109.069 267.903C109.017 267.886 108.946 267.865 108.855 267.839C108.767 267.814 108.651 267.801 108.506 267.801C108.174 267.801 107.934 267.885 107.786 268.053C107.641 268.22 107.569 268.466 107.569 268.79V276H106.563ZM110.444 276V269.455H111.45V276H110.444ZM110.955 268.364C110.759 268.364 110.59 268.297 110.448 268.163C110.309 268.03 110.239 267.869 110.239 267.682C110.239 267.494 110.309 267.334 110.448 267.2C110.59 267.067 110.759 267 110.955 267C111.151 267 111.319 267.067 111.458 267.2C111.6 267.334 111.671 267.494 111.671 267.682C111.671 267.869 111.6 268.03 111.458 268.163C111.319 268.297 111.151 268.364 110.955 268.364ZM115.934 278.591C115.448 278.591 115.03 278.528 114.681 278.403C114.331 278.281 114.04 278.119 113.807 277.918C113.577 277.719 113.394 277.506 113.257 277.278L114.059 276.716C114.15 276.835 114.265 276.972 114.404 277.125C114.543 277.281 114.733 277.416 114.975 277.53C115.219 277.646 115.539 277.705 115.934 277.705C116.462 277.705 116.898 277.577 117.242 277.321C117.586 277.065 117.757 276.665 117.757 276.119V274.79H117.672C117.598 274.909 117.493 275.057 117.357 275.233C117.223 275.406 117.03 275.561 116.777 275.697C116.527 275.831 116.189 275.898 115.763 275.898C115.235 275.898 114.76 275.773 114.34 275.523C113.922 275.273 113.591 274.909 113.347 274.432C113.105 273.955 112.985 273.375 112.985 272.693C112.985 272.023 113.103 271.439 113.338 270.942C113.574 270.442 113.902 270.055 114.323 269.783C114.743 269.507 115.229 269.369 115.78 269.369C116.206 269.369 116.544 269.44 116.794 269.582C117.047 269.722 117.24 269.881 117.374 270.06C117.51 270.236 117.615 270.381 117.689 270.494H117.792V269.455H118.763V276.188C118.763 276.75 118.635 277.207 118.38 277.56C118.127 277.915 117.786 278.175 117.357 278.339C116.931 278.507 116.456 278.591 115.934 278.591ZM115.9 274.994C116.303 274.994 116.644 274.902 116.922 274.717C117.201 274.533 117.412 274.267 117.557 273.92C117.702 273.574 117.775 273.159 117.775 272.676C117.775 272.205 117.703 271.788 117.561 271.428C117.419 271.067 117.209 270.784 116.931 270.58C116.652 270.375 116.309 270.273 115.9 270.273C115.473 270.273 115.118 270.381 114.834 270.597C114.553 270.812 114.341 271.102 114.199 271.466C114.06 271.83 113.99 272.233 113.99 272.676C113.99 273.131 114.061 273.533 114.203 273.882C114.348 274.229 114.561 274.501 114.843 274.7C115.127 274.896 115.479 274.994 115.9 274.994ZM125.24 270.92L124.337 271.176C124.28 271.026 124.196 270.879 124.086 270.737C123.978 270.592 123.83 270.473 123.642 270.379C123.455 270.286 123.215 270.239 122.922 270.239C122.522 270.239 122.188 270.331 121.921 270.516C121.657 270.697 121.525 270.929 121.525 271.21C121.525 271.46 121.615 271.658 121.797 271.803C121.979 271.947 122.263 272.068 122.65 272.165L123.621 272.403C124.206 272.545 124.642 272.763 124.929 273.055C125.216 273.345 125.36 273.719 125.36 274.176C125.36 274.551 125.252 274.886 125.036 275.182C124.823 275.477 124.525 275.71 124.141 275.881C123.757 276.051 123.311 276.136 122.803 276.136C122.135 276.136 121.583 275.991 121.145 275.702C120.708 275.412 120.431 274.989 120.314 274.432L121.269 274.193C121.36 274.545 121.532 274.81 121.784 274.986C122.04 275.162 122.374 275.25 122.786 275.25C123.255 275.25 123.627 275.151 123.902 274.952C124.181 274.75 124.32 274.509 124.32 274.227C124.32 274 124.24 273.81 124.081 273.656C123.922 273.5 123.678 273.384 123.348 273.307L122.257 273.051C121.658 272.909 121.218 272.689 120.936 272.391C120.658 272.089 120.519 271.713 120.519 271.261C120.519 270.892 120.623 270.565 120.83 270.281C121.04 269.997 121.326 269.774 121.686 269.612C122.05 269.45 122.462 269.369 122.922 269.369C123.57 269.369 124.078 269.511 124.448 269.795C124.82 270.08 125.084 270.455 125.24 270.92Z" fill="currentColor"/>
  <path d="M245.58 268.21V267.273H252.125V268.21H249.381V276H248.324V268.21H245.58ZM254.625 272.062V276H253.62V267.273H254.625V270.477H254.711C254.864 270.139 255.094 269.871 255.401 269.672C255.711 269.47 256.123 269.369 256.637 269.369C257.083 269.369 257.473 269.459 257.809 269.638C258.144 269.814 258.404 270.085 258.588 270.452C258.776 270.815 258.87 271.278 258.87 271.841V276H257.864V271.909C257.864 271.389 257.729 270.987 257.459 270.703C257.192 270.416 256.821 270.273 256.347 270.273C256.017 270.273 255.722 270.342 255.461 270.482C255.202 270.621 254.998 270.824 254.847 271.091C254.699 271.358 254.625 271.682 254.625 272.062ZM264.835 273.324V269.455H265.84V276H264.835V274.892H264.766C264.613 275.224 264.374 275.507 264.05 275.74C263.727 275.97 263.317 276.085 262.823 276.085C262.414 276.085 262.05 275.996 261.732 275.817C261.414 275.635 261.164 275.362 260.982 274.999C260.8 274.632 260.71 274.17 260.71 273.614V269.455H261.715V273.545C261.715 274.023 261.849 274.403 262.116 274.688C262.386 274.972 262.729 275.114 263.147 275.114C263.397 275.114 263.651 275.05 263.91 274.922C264.171 274.794 264.39 274.598 264.566 274.334C264.745 274.07 264.835 273.733 264.835 273.324ZM268.688 272.062V276H267.682V269.455H268.654V270.477H268.739C268.892 270.145 269.125 269.878 269.438 269.676C269.75 269.472 270.154 269.369 270.648 269.369C271.091 269.369 271.479 269.46 271.811 269.642C272.144 269.821 272.402 270.094 272.587 270.46C272.772 270.824 272.864 271.284 272.864 271.841V276H271.858V271.909C271.858 271.395 271.725 270.994 271.458 270.707C271.191 270.418 270.824 270.273 270.358 270.273C270.037 270.273 269.75 270.342 269.498 270.482C269.248 270.621 269.05 270.824 268.905 271.091C268.76 271.358 268.688 271.682 268.688 272.062ZM277.173 276.136C276.628 276.136 276.146 275.999 275.729 275.723C275.311 275.445 274.984 275.053 274.749 274.547C274.513 274.038 274.395 273.438 274.395 272.744C274.395 272.057 274.513 271.46 274.749 270.955C274.984 270.449 275.313 270.058 275.733 269.783C276.153 269.507 276.639 269.369 277.19 269.369C277.616 269.369 277.953 269.44 278.2 269.582C278.45 269.722 278.641 269.881 278.771 270.06C278.905 270.236 279.009 270.381 279.082 270.494H279.168V267.273H280.173V276H279.202V274.994H279.082C279.009 275.114 278.903 275.264 278.767 275.446C278.631 275.625 278.436 275.786 278.183 275.928C277.93 276.067 277.594 276.136 277.173 276.136ZM277.31 275.233C277.713 275.233 278.054 275.128 278.332 274.918C278.611 274.705 278.822 274.411 278.967 274.036C279.112 273.658 279.185 273.222 279.185 272.727C279.185 272.239 279.114 271.811 278.972 271.445C278.83 271.075 278.619 270.788 278.341 270.584C278.063 270.376 277.719 270.273 277.31 270.273C276.884 270.273 276.528 270.382 276.244 270.601C275.963 270.817 275.751 271.111 275.609 271.483C275.47 271.852 275.401 272.267 275.401 272.727C275.401 273.193 275.472 273.616 275.614 273.997C275.759 274.375 275.972 274.676 276.253 274.901C276.537 275.122 276.889 275.233 277.31 275.233ZM284.899 276.136C284.268 276.136 283.724 275.997 283.267 275.719C282.812 275.438 282.462 275.045 282.214 274.543C281.97 274.037 281.848 273.449 281.848 272.778C281.848 272.108 281.97 271.517 282.214 271.006C282.462 270.491 282.805 270.091 283.246 269.804C283.689 269.514 284.206 269.369 284.797 269.369C285.138 269.369 285.474 269.426 285.807 269.54C286.139 269.653 286.442 269.838 286.714 270.094C286.987 270.347 287.205 270.682 287.366 271.099C287.528 271.517 287.609 272.031 287.609 272.642V273.068H282.564V272.199H286.587C286.587 271.83 286.513 271.5 286.365 271.21C286.22 270.92 286.013 270.692 285.743 270.524C285.476 270.357 285.161 270.273 284.797 270.273C284.396 270.273 284.05 270.372 283.757 270.571C283.467 270.767 283.244 271.023 283.088 271.338C282.932 271.653 282.854 271.991 282.854 272.352V272.932C282.854 273.426 282.939 273.845 283.109 274.189C283.283 274.53 283.523 274.79 283.83 274.969C284.136 275.145 284.493 275.233 284.899 275.233C285.163 275.233 285.402 275.196 285.615 275.122C285.831 275.045 286.017 274.932 286.173 274.781C286.33 274.628 286.45 274.437 286.536 274.21L287.507 274.483C287.405 274.812 287.233 275.102 286.991 275.352C286.75 275.599 286.452 275.793 286.097 275.932C285.741 276.068 285.342 276.136 284.899 276.136ZM289.139 276V269.455H290.111V270.443H290.179C290.298 270.119 290.514 269.857 290.827 269.655C291.139 269.453 291.491 269.352 291.884 269.352C291.957 269.352 292.05 269.354 292.161 269.357C292.271 269.359 292.355 269.364 292.412 269.369V270.392C292.378 270.384 292.3 270.371 292.178 270.354C292.058 270.334 291.932 270.324 291.798 270.324C291.48 270.324 291.196 270.391 290.946 270.524C290.699 270.655 290.503 270.837 290.358 271.07C290.216 271.3 290.145 271.562 290.145 271.858V276H289.139ZM297.115 276V267.273H300.064C300.746 267.273 301.306 267.389 301.743 267.622C302.181 267.852 302.505 268.169 302.715 268.572C302.925 268.976 303.03 269.435 303.03 269.949C303.03 270.463 302.925 270.919 302.715 271.317C302.505 271.714 302.182 272.027 301.748 272.254C301.313 272.479 300.757 272.591 300.081 272.591H297.695V271.636H300.047C300.513 271.636 300.888 271.568 301.172 271.432C301.459 271.295 301.667 271.102 301.794 270.852C301.925 270.599 301.99 270.298 301.99 269.949C301.99 269.599 301.925 269.294 301.794 269.033C301.664 268.771 301.455 268.57 301.168 268.428C300.881 268.283 300.502 268.21 300.03 268.21H298.172V276H297.115ZM301.223 272.08L303.371 276H302.144L300.03 272.08H301.223ZM308.78 273.324V269.455H309.786V276H308.78V274.892H308.712C308.558 275.224 308.32 275.507 307.996 275.74C307.672 275.97 307.263 276.085 306.768 276.085C306.359 276.085 305.996 275.996 305.678 275.817C305.359 275.635 305.109 275.362 304.928 274.999C304.746 274.632 304.655 274.17 304.655 273.614V269.455H305.661V273.545C305.661 274.023 305.794 274.403 306.061 274.688C306.331 274.972 306.675 275.114 307.092 275.114C307.342 275.114 307.597 275.05 307.855 274.922C308.116 274.794 308.335 274.598 308.511 274.334C308.69 274.07 308.78 273.733 308.78 273.324ZM312.633 272.062V276H311.627V269.455H312.599V270.477H312.684C312.838 270.145 313.071 269.878 313.383 269.676C313.696 269.472 314.099 269.369 314.593 269.369C315.037 269.369 315.424 269.46 315.757 269.642C316.089 269.821 316.348 270.094 316.532 270.46C316.717 270.824 316.809 271.284 316.809 271.841V276H315.804V271.909C315.804 271.395 315.67 270.994 315.403 270.707C315.136 270.418 314.77 270.273 314.304 270.273C313.983 270.273 313.696 270.342 313.443 270.482C313.193 270.621 312.995 270.824 312.85 271.091C312.706 271.358 312.633 271.682 312.633 272.062ZM321.494 269.455V270.307H318.102V269.455H321.494ZM319.09 267.886H320.096V274.125C320.096 274.409 320.137 274.622 320.219 274.764C320.305 274.903 320.413 274.997 320.543 275.045C320.677 275.091 320.817 275.114 320.965 275.114C321.076 275.114 321.167 275.108 321.238 275.097C321.309 275.082 321.366 275.071 321.408 275.062L321.613 275.966C321.545 275.991 321.45 276.017 321.327 276.043C321.205 276.071 321.05 276.085 320.863 276.085C320.579 276.085 320.3 276.024 320.028 275.902C319.758 275.78 319.533 275.594 319.354 275.344C319.178 275.094 319.09 274.778 319.09 274.398V267.886ZM323.006 276V269.455H324.012V276H323.006ZM323.518 268.364C323.322 268.364 323.153 268.297 323.011 268.163C322.871 268.03 322.802 267.869 322.802 267.682C322.802 267.494 322.871 267.334 323.011 267.2C323.153 267.067 323.322 267 323.518 267C323.714 267 323.881 267.067 324.021 267.2C324.163 267.334 324.234 267.494 324.234 267.682C324.234 267.869 324.163 268.03 324.021 268.163C323.881 268.297 323.714 268.364 323.518 268.364ZM325.854 276V269.455H326.826V270.477H326.911C327.047 270.128 327.267 269.857 327.571 269.663C327.875 269.467 328.24 269.369 328.667 269.369C329.098 269.369 329.458 269.467 329.745 269.663C330.034 269.857 330.26 270.128 330.422 270.477H330.49C330.658 270.139 330.909 269.871 331.245 269.672C331.58 269.47 331.982 269.369 332.451 269.369C333.036 269.369 333.515 269.553 333.887 269.919C334.259 270.283 334.445 270.849 334.445 271.619V276H333.439V271.619C333.439 271.136 333.307 270.791 333.043 270.584C332.779 270.376 332.468 270.273 332.11 270.273C331.65 270.273 331.293 270.412 331.04 270.69C330.787 270.966 330.661 271.315 330.661 271.739V276H329.638V271.517C329.638 271.145 329.517 270.845 329.276 270.618C329.034 270.388 328.723 270.273 328.343 270.273C328.081 270.273 327.837 270.342 327.61 270.482C327.385 270.621 327.203 270.814 327.064 271.061C326.928 271.305 326.86 271.588 326.86 271.909V276H325.854ZM339.028 276.136C338.397 276.136 337.853 275.997 337.396 275.719C336.941 275.438 336.591 275.045 336.343 274.543C336.099 274.037 335.977 273.449 335.977 272.778C335.977 272.108 336.099 271.517 336.343 271.006C336.591 270.491 336.934 270.091 337.375 269.804C337.818 269.514 338.335 269.369 338.926 269.369C339.267 269.369 339.603 269.426 339.936 269.54C340.268 269.653 340.571 269.838 340.843 270.094C341.116 270.347 341.333 270.682 341.495 271.099C341.657 271.517 341.738 272.031 341.738 272.642V273.068H336.693V272.199H340.716C340.716 271.83 340.642 271.5 340.494 271.21C340.349 270.92 340.142 270.692 339.872 270.524C339.605 270.357 339.289 270.273 338.926 270.273C338.525 270.273 338.179 270.372 337.886 270.571C337.596 270.767 337.373 271.023 337.217 271.338C337.061 271.653 336.983 271.991 336.983 272.352V272.932C336.983 273.426 337.068 273.845 337.238 274.189C337.412 274.53 337.652 274.79 337.958 274.969C338.265 275.145 338.622 275.233 339.028 275.233C339.292 275.233 339.531 275.196 339.744 275.122C339.96 275.045 340.146 274.932 340.302 274.781C340.458 274.628 340.579 274.437 340.664 274.21L341.636 274.483C341.534 274.812 341.362 275.102 341.12 275.352C340.879 275.599 340.581 275.793 340.225 275.932C339.87 276.068 339.471 276.136 339.028 276.136ZM346.779 276V267.273H347.836V271.159H352.49V267.273H353.547V276H352.49V272.097H347.836V276H346.779ZM358.185 276.136C357.594 276.136 357.076 275.996 356.63 275.714C356.186 275.433 355.84 275.04 355.59 274.534C355.343 274.028 355.219 273.437 355.219 272.761C355.219 272.08 355.343 271.484 355.59 270.976C355.84 270.467 356.186 270.072 356.63 269.791C357.076 269.51 357.594 269.369 358.185 269.369C358.776 269.369 359.293 269.51 359.736 269.791C360.182 270.072 360.529 270.467 360.776 270.976C361.026 271.484 361.151 272.08 361.151 272.761C361.151 273.437 361.026 274.028 360.776 274.534C360.529 275.04 360.182 275.433 359.736 275.714C359.293 275.996 358.776 276.136 358.185 276.136ZM358.185 275.233C358.634 275.233 359.003 275.118 359.293 274.888C359.583 274.658 359.797 274.355 359.936 273.98C360.076 273.605 360.145 273.199 360.145 272.761C360.145 272.324 360.076 271.916 359.936 271.538C359.797 271.161 359.583 270.855 359.293 270.622C359.003 270.389 358.634 270.273 358.185 270.273C357.736 270.273 357.367 270.389 357.077 270.622C356.787 270.855 356.573 271.161 356.434 271.538C356.294 271.916 356.225 272.324 356.225 272.761C356.225 273.199 356.294 273.605 356.434 273.98C356.573 274.355 356.787 274.658 357.077 274.888C357.367 275.118 357.736 275.233 358.185 275.233ZM367.322 270.92L366.419 271.176C366.362 271.026 366.278 270.879 366.168 270.737C366.06 270.592 365.912 270.473 365.724 270.379C365.537 270.286 365.297 270.239 365.004 270.239C364.604 270.239 364.27 270.331 364.003 270.516C363.739 270.697 363.607 270.929 363.607 271.21C363.607 271.46 363.697 271.658 363.879 271.803C364.061 271.947 364.345 272.068 364.732 272.165L365.703 272.403C366.288 272.545 366.724 272.763 367.011 273.055C367.298 273.345 367.442 273.719 367.442 274.176C367.442 274.551 367.334 274.886 367.118 275.182C366.905 275.477 366.607 275.71 366.223 275.881C365.839 276.051 365.393 276.136 364.885 276.136C364.217 276.136 363.665 275.991 363.227 275.702C362.79 275.412 362.513 274.989 362.396 274.432L363.351 274.193C363.442 274.545 363.614 274.81 363.866 274.986C364.122 275.162 364.456 275.25 364.868 275.25C365.337 275.25 365.709 275.151 365.984 274.952C366.263 274.75 366.402 274.509 366.402 274.227C366.402 274 366.322 273.81 366.163 273.656C366.004 273.5 365.76 273.384 365.43 273.307L364.339 273.051C363.74 272.909 363.3 272.689 363.018 272.391C362.74 272.089 362.601 271.713 362.601 271.261C362.601 270.892 362.705 270.565 362.912 270.281C363.122 269.997 363.408 269.774 363.768 269.612C364.132 269.45 364.544 269.369 365.004 269.369C365.652 269.369 366.161 269.511 366.53 269.795C366.902 270.08 367.166 270.455 367.322 270.92ZM371.802 269.455V270.307H368.41V269.455H371.802ZM369.399 267.886H370.404V274.125C370.404 274.409 370.446 274.622 370.528 274.764C370.613 274.903 370.721 274.997 370.852 275.045C370.985 275.091 371.126 275.114 371.274 275.114C371.385 275.114 371.475 275.108 371.547 275.097C371.618 275.082 371.674 275.071 371.717 275.062L371.922 275.966C371.853 275.991 371.758 276.017 371.636 276.043C371.514 276.071 371.359 276.085 371.172 276.085C370.887 276.085 370.609 276.024 370.336 275.902C370.066 275.78 369.842 275.594 369.663 275.344C369.487 275.094 369.399 274.778 369.399 274.398V267.886ZM375.989 276.136C375.358 276.136 374.814 275.997 374.357 275.719C373.902 275.438 373.551 275.045 373.304 274.543C373.06 274.037 372.938 273.449 372.938 272.778C372.938 272.108 373.06 271.517 373.304 271.006C373.551 270.491 373.895 270.091 374.336 269.804C374.779 269.514 375.296 269.369 375.887 269.369C376.228 269.369 376.564 269.426 376.897 269.54C377.229 269.653 377.532 269.838 377.804 270.094C378.077 270.347 378.294 270.682 378.456 271.099C378.618 271.517 378.699 272.031 378.699 272.642V273.068H373.654V272.199H377.676C377.676 271.83 377.603 271.5 377.455 271.21C377.31 270.92 377.103 270.692 376.833 270.524C376.566 270.357 376.25 270.273 375.887 270.273C375.486 270.273 375.14 270.372 374.847 270.571C374.557 270.767 374.334 271.023 374.178 271.338C374.022 271.653 373.944 271.991 373.944 272.352V272.932C373.944 273.426 374.029 273.845 374.199 274.189C374.373 274.53 374.613 274.79 374.919 274.969C375.226 275.145 375.583 275.233 375.989 275.233C376.253 275.233 376.492 275.196 376.705 275.122C376.921 275.045 377.107 274.932 377.263 274.781C377.419 274.628 377.54 274.437 377.625 274.21L378.597 274.483C378.495 274.812 378.323 275.102 378.081 275.352C377.84 275.599 377.542 275.793 377.186 275.932C376.831 276.068 376.432 276.136 375.989 276.136ZM382.701 276.136C382.155 276.136 381.674 275.999 381.256 275.723C380.838 275.445 380.512 275.053 380.276 274.547C380.04 274.038 379.922 273.438 379.922 272.744C379.922 272.057 380.04 271.46 380.276 270.955C380.512 270.449 380.84 270.058 381.26 269.783C381.681 269.507 382.167 269.369 382.718 269.369C383.144 269.369 383.48 269.44 383.728 269.582C383.978 269.722 384.168 269.881 384.299 270.06C384.432 270.236 384.536 270.381 384.61 270.494H384.695V267.273H385.701V276H384.729V274.994H384.61C384.536 275.114 384.431 275.264 384.294 275.446C384.158 275.625 383.963 275.786 383.711 275.928C383.458 276.067 383.121 276.136 382.701 276.136ZM382.837 275.233C383.24 275.233 383.581 275.128 383.86 274.918C384.138 274.705 384.35 274.411 384.495 274.036C384.64 273.658 384.712 273.222 384.712 272.727C384.712 272.239 384.641 271.811 384.499 271.445C384.357 271.075 384.147 270.788 383.868 270.584C383.59 270.376 383.246 270.273 382.837 270.273C382.411 270.273 382.056 270.382 381.772 270.601C381.49 270.817 381.279 271.111 381.137 271.483C380.998 271.852 380.928 272.267 380.928 272.727C380.928 273.193 380.999 273.616 381.141 273.997C381.286 274.375 381.499 274.676 381.78 274.901C382.064 275.122 382.417 275.233 382.837 275.233Z" fill="currentColor"/>
  <path d="M224.707 179.707C225.098 179.317 225.098 178.683 224.707 178.293L218.343 171.929C217.953 171.538 217.319 171.538 216.929 171.929C216.538 172.319 216.538 172.953 216.929 173.343L222.586 179L216.929 184.657C216.538 185.047 216.538 185.681 216.929 186.071C217.319 186.462 217.953 186.462 218.343 186.071L224.707 179.707ZM141 179L141 180L224 180L224 179L224 178L141 178L141 179Z" fill="currentColor"/>
  <path d="M83.4795 125.979H33.4795C30.1643 125.979 26.9849 127.285 24.6407 129.61C22.2965 131.936 20.9795 135.09 20.9795 138.379V237.579C20.9795 240.867 22.2965 244.021 24.6407 246.347C26.9849 248.672 30.1643 249.979 33.4795 249.979H108.479C111.795 249.979 114.974 248.672 117.318 246.347C119.663 244.021 120.979 240.867 120.979 237.579V163.179M83.4795 125.979C85.4579 125.975 87.4175 126.36 89.2453 127.112C91.0731 127.863 92.733 128.965 94.1295 130.356L116.554 152.601C117.96 153.987 119.074 155.635 119.834 157.451C120.593 159.266 120.983 161.213 120.979 163.179M83.4795 125.979V156.979C83.4795 158.623 84.138 160.2 85.3101 161.363C86.4822 162.525 88.0719 163.179 89.7295 163.179L120.979 163.179M45.9795 187.979H95.9795M58.4795 181.779V194.179M45.9795 218.979H95.9795M83.4795 212.779V225.179" stroke="currentColor" stroke-width="2" stroke-linecap="round" stroke-linejoin="round"/>
  <path d="M63.8838 106.302C65.9934 106.299 68.0833 106.712 70.0322 107.52C71.981 108.327 73.7512 109.512 75.2402 111.006L85.3975 121.163H82.5684L73.8242 112.419C72.5211 111.111 70.9722 110.074 69.2666 109.367C67.869 108.788 66.3885 108.44 64.8838 108.335V121.163H62.8838V108.301H13.8896C10.8401 108.301 7.91517 109.513 5.75879 111.669C3.60242 113.825 2.39064 116.75 2.39062 119.8V219.789C2.39072 222.839 3.60252 225.764 5.75879 227.92C7.64551 229.806 10.1209 230.969 12.7529 231.23V233.237C9.58948 232.97 6.60678 231.596 4.34473 229.334C1.81338 226.803 0.390716 223.369 0.390625 219.789V119.8C0.390636 116.22 1.81328 112.786 4.34473 110.255C6.87618 107.723 10.3096 106.301 13.8896 106.301H63.8838V106.302Z" fill="currentColor"/>
  <path d="M153.7 156.818V167H152.467V156.818H153.7ZM156.013 167V159.364H157.147V160.557H157.246C157.405 160.149 157.662 159.833 158.017 159.607C158.372 159.379 158.797 159.264 159.295 159.264C159.798 159.264 160.218 159.379 160.552 159.607C160.89 159.833 161.154 160.149 161.343 160.557H161.422C161.618 160.162 161.911 159.849 162.302 159.617C162.693 159.382 163.162 159.264 163.709 159.264C164.392 159.264 164.951 159.478 165.385 159.906C165.819 160.33 166.036 160.991 166.036 161.889V167H164.863V161.889C164.863 161.326 164.709 160.923 164.4 160.681C164.092 160.439 163.729 160.318 163.312 160.318C162.775 160.318 162.359 160.481 162.064 160.805C161.769 161.127 161.621 161.535 161.621 162.028V167H160.428V161.77C160.428 161.336 160.287 160.986 160.006 160.721C159.724 160.452 159.361 160.318 158.917 160.318C158.612 160.318 158.327 160.399 158.062 160.562C157.8 160.724 157.588 160.95 157.425 161.238C157.266 161.523 157.187 161.853 157.187 162.227V167H156.013ZM168.181 169.864V159.364H169.315V160.577H169.454C169.54 160.444 169.66 160.275 169.812 160.07C169.968 159.861 170.19 159.675 170.478 159.513C170.77 159.347 171.164 159.264 171.661 159.264C172.304 159.264 172.871 159.425 173.362 159.746C173.852 160.068 174.235 160.524 174.51 161.114C174.785 161.704 174.923 162.4 174.923 163.202C174.923 164.01 174.785 164.711 174.51 165.305C174.235 165.895 173.854 166.352 173.367 166.677C172.879 166.998 172.318 167.159 171.681 167.159C171.191 167.159 170.798 167.078 170.503 166.915C170.208 166.75 169.981 166.562 169.822 166.354C169.663 166.142 169.54 165.966 169.454 165.827H169.355V169.864H168.181ZM169.335 163.182C169.335 163.759 169.419 164.267 169.588 164.708C169.757 165.146 170.004 165.489 170.329 165.737C170.654 165.982 171.052 166.105 171.522 166.105C172.013 166.105 172.422 165.976 172.75 165.717C173.082 165.455 173.33 165.104 173.496 164.663C173.665 164.219 173.749 163.725 173.749 163.182C173.749 162.645 173.667 162.161 173.501 161.73C173.338 161.296 173.092 160.953 172.76 160.701C172.432 160.446 172.019 160.318 171.522 160.318C171.045 160.318 170.644 160.439 170.319 160.681C169.994 160.92 169.749 161.254 169.583 161.685C169.418 162.113 169.335 162.612 169.335 163.182ZM179.815 167.159C179.125 167.159 178.521 166.995 178 166.667C177.483 166.339 177.079 165.88 176.787 165.29C176.499 164.7 176.355 164.01 176.355 163.222C176.355 162.426 176.499 161.732 176.787 161.138C177.079 160.545 177.483 160.085 178 159.756C178.521 159.428 179.125 159.264 179.815 159.264C180.504 159.264 181.107 159.428 181.624 159.756C182.145 160.085 182.549 160.545 182.838 161.138C183.129 161.732 183.275 162.426 183.275 163.222C183.275 164.01 183.129 164.7 182.838 165.29C182.549 165.88 182.145 166.339 181.624 166.667C181.107 166.995 180.504 167.159 179.815 167.159ZM179.815 166.105C180.338 166.105 180.769 165.971 181.107 165.702C181.445 165.434 181.696 165.081 181.858 164.643C182.021 164.206 182.102 163.732 182.102 163.222C182.102 162.711 182.021 162.236 181.858 161.795C181.696 161.354 181.445 160.998 181.107 160.726C180.769 160.454 180.338 160.318 179.815 160.318C179.291 160.318 178.86 160.454 178.522 160.726C178.184 160.998 177.934 161.354 177.771 161.795C177.609 162.236 177.528 162.711 177.528 163.222C177.528 163.732 177.609 164.206 177.771 164.643C177.934 165.081 178.184 165.434 178.522 165.702C178.86 165.971 179.291 166.105 179.815 166.105ZM185.066 167V159.364H186.2V160.517H186.279C186.418 160.139 186.67 159.833 187.035 159.597C187.399 159.362 187.81 159.244 188.268 159.244C188.354 159.244 188.462 159.246 188.591 159.249C188.72 159.253 188.818 159.258 188.884 159.264V160.457C188.844 160.447 188.753 160.433 188.611 160.413C188.472 160.389 188.324 160.378 188.168 160.378C187.797 160.378 187.466 160.456 187.174 160.612C186.886 160.764 186.657 160.976 186.488 161.248C186.322 161.516 186.239 161.823 186.239 162.168V167H185.066ZM194.075 159.364V160.358H190.117V159.364H194.075ZM191.271 157.534H192.444V164.812C192.444 165.144 192.492 165.393 192.588 165.558C192.688 165.721 192.813 165.83 192.966 165.886C193.122 165.939 193.286 165.966 193.458 165.966C193.587 165.966 193.693 165.959 193.776 165.946C193.859 165.929 193.925 165.916 193.975 165.906L194.214 166.96C194.134 166.99 194.023 167.02 193.881 167.05C193.738 167.083 193.558 167.099 193.339 167.099C193.007 167.099 192.683 167.028 192.364 166.886C192.049 166.743 191.788 166.526 191.579 166.234C191.373 165.943 191.271 165.575 191.271 165.131V157.534Z" fill="currentColor"/>
  <path d="M204.258 18V4.90909H209.167C210.173 4.90909 211.017 5.08381 211.698 5.43324C212.384 5.78267 212.902 6.27273 213.252 6.90341C213.605 7.52983 213.782 8.26065 213.782 9.09588C213.782 9.93537 213.603 10.6641 213.245 11.282C212.892 11.8956 212.369 12.3707 211.679 12.7074C210.989 13.0398 210.141 13.206 209.135 13.206H205.639V11.2372H208.816C209.404 11.2372 209.885 11.1562 210.26 10.9943C210.635 10.8281 210.912 10.5874 211.091 10.272C211.274 9.95241 211.366 9.56037 211.366 9.09588C211.366 8.63139 211.274 8.23509 211.091 7.90696C210.908 7.57457 210.629 7.32315 210.254 7.1527C209.879 6.97798 209.395 6.89062 208.803 6.89062H206.629V18H204.258ZM211.021 12.0682L214.262 18H211.615L208.432 12.0682H211.021ZM222.121 13.8707V8.18182H224.434V18H222.191V16.255H222.089C221.867 16.8047 221.503 17.2543 220.996 17.6037C220.493 17.9531 219.873 18.1278 219.135 18.1278C218.492 18.1278 217.923 17.9851 217.429 17.6996C216.939 17.4098 216.555 16.9901 216.278 16.4403C216.001 15.8864 215.863 15.2173 215.863 14.4332V8.18182H218.177V14.0753C218.177 14.6974 218.347 15.1918 218.688 15.5582C219.029 15.9247 219.476 16.108 220.03 16.108C220.371 16.108 220.702 16.0249 221.021 15.8587C221.341 15.6925 221.603 15.4453 221.807 15.1172C222.016 14.7848 222.121 14.3693 222.121 13.8707ZM229.128 12.2472V18H226.814V8.18182H229.026V9.85014H229.141C229.366 9.30043 229.727 8.86364 230.221 8.53977C230.719 8.21591 231.335 8.05398 232.068 8.05398C232.746 8.05398 233.336 8.19886 233.839 8.48864C234.346 8.77841 234.738 9.19815 235.015 9.74787C235.296 10.2976 235.435 10.9645 235.43 11.7486V18H233.116V12.1065C233.116 11.4503 232.946 10.9368 232.605 10.5661C232.268 10.1953 231.802 10.0099 231.205 10.0099C230.8 10.0099 230.44 10.0994 230.125 10.2784C229.814 10.4531 229.569 10.7067 229.39 11.0391C229.215 11.3714 229.128 11.7741 229.128 12.2472ZM241.775 6.89702V4.90909H252.219V6.89702H248.173V18H245.821V6.89702H241.775ZM256.444 12.2472V18H254.13V4.90909H256.393V9.85014H256.508C256.738 9.29616 257.094 8.85937 257.576 8.53977C258.061 8.21591 258.679 8.05398 259.429 8.05398C260.111 8.05398 260.706 8.19673 261.213 8.48224C261.72 8.76776 262.112 9.18537 262.389 9.73509C262.67 10.2848 262.811 10.956 262.811 11.7486V18H260.497V12.1065C260.497 11.446 260.326 10.9325 259.985 10.5661C259.649 10.1953 259.176 10.0099 258.566 10.0099C258.157 10.0099 257.791 10.0994 257.467 10.2784C257.147 10.4531 256.896 10.7067 256.713 11.0391C256.534 11.3714 256.444 11.7741 256.444 12.2472ZM271.427 13.8707V8.18182H273.741V18H271.498V16.255H271.395C271.174 16.8047 270.809 17.2543 270.302 17.6037C269.799 17.9531 269.179 18.1278 268.442 18.1278C267.799 18.1278 267.23 17.9851 266.735 17.6996C266.245 17.4098 265.862 16.9901 265.585 16.4403C265.308 15.8864 265.169 15.2173 265.169 14.4332V8.18182H267.483V14.0753C267.483 14.6974 267.654 15.1918 267.995 15.5582C268.336 15.9247 268.783 16.108 269.337 16.108C269.678 16.108 270.008 16.0249 270.328 15.8587C270.647 15.6925 270.909 15.4453 271.114 15.1172C271.323 14.7848 271.427 14.3693 271.427 13.8707ZM278.434 12.2472V18H276.121V8.18182H278.332V9.85014H278.447C278.673 9.30043 279.033 8.86364 279.528 8.53977C280.026 8.21591 280.642 8.05398 281.375 8.05398C282.052 8.05398 282.643 8.19886 283.145 8.48864C283.653 8.77841 284.045 9.19815 284.322 9.74787C284.603 10.2976 284.741 10.9645 284.737 11.7486V18H282.423V12.1065C282.423 11.4503 282.253 10.9368 281.912 10.5661C281.575 10.1953 281.108 10.0099 280.512 10.0099C280.107 10.0099 279.747 10.0994 279.432 10.2784C279.121 10.4531 278.876 10.7067 278.697 11.0391C278.522 11.3714 278.434 11.7741 278.434 12.2472ZM290.733 18.1726C289.961 18.1726 289.271 17.9744 288.662 17.5781C288.052 17.1818 287.571 16.6065 287.217 15.8523C286.863 15.098 286.687 14.1818 286.687 13.1037C286.687 12.0128 286.866 11.0923 287.224 10.3423C287.586 9.58807 288.074 9.01918 288.687 8.63565C289.301 8.24787 289.985 8.05398 290.739 8.05398C291.314 8.05398 291.787 8.15199 292.158 8.34801C292.529 8.53977 292.823 8.77202 293.04 9.04474C293.258 9.31321 293.426 9.56676 293.545 9.8054H293.641V4.90909H295.961V18H293.686V16.4531H293.545C293.426 16.6918 293.253 16.9453 293.028 17.2138C292.802 17.478 292.503 17.7038 292.133 17.8913C291.762 18.0788 291.295 18.1726 290.733 18.1726ZM291.378 16.2741C291.868 16.2741 292.286 16.142 292.631 15.8778C292.976 15.6094 293.238 15.2365 293.417 14.7592C293.596 14.282 293.686 13.7259 293.686 13.0909C293.686 12.456 293.596 11.9041 293.417 11.4354C293.243 10.9666 292.983 10.6023 292.638 10.3423C292.297 10.0824 291.877 9.95241 291.378 9.95241C290.863 9.95241 290.432 10.0866 290.087 10.3551C289.742 10.6236 289.482 10.9943 289.307 11.4673C289.133 11.9403 289.045 12.4815 289.045 13.0909C289.045 13.7045 289.133 14.2521 289.307 14.7337C289.486 15.2109 289.748 15.5881 290.094 15.8651C290.443 16.1378 290.871 16.2741 291.378 16.2741ZM302.774 18.1918C301.789 18.1918 300.939 17.9872 300.223 17.5781C299.512 17.1648 298.964 16.581 298.581 15.8267C298.197 15.0682 298.005 14.1754 298.005 13.1484C298.005 12.1385 298.197 11.2521 298.581 10.4893C298.968 9.7223 299.51 9.12571 300.204 8.69957C300.899 8.26918 301.715 8.05398 302.652 8.05398C303.257 8.05398 303.828 8.15199 304.365 8.34801C304.907 8.53977 305.384 8.83807 305.797 9.2429C306.215 9.64773 306.543 10.1634 306.782 10.7898C307.02 11.4119 307.14 12.1534 307.14 13.0142V13.7237H299.092V12.1641H304.922C304.917 11.7209 304.821 11.3267 304.634 10.9815C304.446 10.6321 304.184 10.3572 303.848 10.157C303.515 9.95668 303.127 9.85653 302.684 9.85653C302.211 9.85653 301.796 9.97159 301.438 10.2017C301.08 10.4276 300.801 10.7259 300.6 11.0966C300.404 11.4631 300.304 11.8658 300.3 12.3047V13.6662C300.3 14.2372 300.404 14.7273 300.613 15.1364C300.822 15.5412 301.114 15.8523 301.489 16.0696C301.864 16.2827 302.303 16.3892 302.806 16.3892C303.142 16.3892 303.447 16.3423 303.72 16.2486C303.993 16.1506 304.229 16.0078 304.429 15.8203C304.63 15.6328 304.781 15.4006 304.883 15.1236L307.044 15.3665C306.907 15.9375 306.647 16.4361 306.264 16.8622C305.885 17.2841 305.399 17.6122 304.806 17.8466C304.214 18.0767 303.537 18.1918 302.774 18.1918ZM309.097 18V8.18182H311.341V9.81818H311.443C311.622 9.25142 311.929 8.81463 312.363 8.50781C312.802 8.19673 313.303 8.04119 313.866 8.04119C313.993 8.04119 314.136 8.04758 314.294 8.06037C314.456 8.06889 314.59 8.08381 314.697 8.10511V10.2337C314.599 10.1996 314.443 10.1697 314.23 10.1442C314.021 10.1143 313.819 10.0994 313.623 10.0994C313.201 10.0994 312.822 10.1911 312.485 10.3743C312.153 10.5533 311.89 10.8026 311.699 11.1222C311.507 11.4418 311.411 11.8104 311.411 12.228V18H309.097ZM320.699 18V8.18182H323.013V18H320.699ZM321.862 6.78835C321.496 6.78835 321.18 6.6669 320.916 6.42401C320.652 6.17685 320.52 5.88068 320.52 5.53551C320.52 5.18608 320.652 4.88991 320.916 4.64702C321.18 4.39986 321.496 4.27628 321.862 4.27628C322.233 4.27628 322.548 4.39986 322.808 4.64702C323.072 4.88991 323.204 5.18608 323.204 5.53551C323.204 5.88068 323.072 6.17685 322.808 6.42401C322.548 6.6669 322.233 6.78835 321.862 6.78835ZM327.706 12.2472V18H325.392V8.18182H327.604V9.85014H327.719C327.945 9.30043 328.305 8.86364 328.799 8.53977C329.298 8.21591 329.913 8.05398 330.646 8.05398C331.324 8.05398 331.914 8.19886 332.417 8.48864C332.924 8.77841 333.316 9.19815 333.593 9.74787C333.874 10.2976 334.013 10.9645 334.009 11.7486V18H331.695V12.1065C331.695 11.4503 331.524 10.9368 331.183 10.5661C330.847 10.1953 330.38 10.0099 329.783 10.0099C329.379 10.0099 329.018 10.0994 328.703 10.2784C328.392 10.4531 328.147 10.7067 327.968 11.0391C327.793 11.3714 327.706 11.7741 327.706 12.2472ZM340.928 18V4.90909H345.837C346.843 4.90909 347.686 5.09659 348.368 5.47159C349.054 5.84659 349.572 6.36222 349.922 7.01847C350.275 7.67045 350.452 8.41193 350.452 9.2429C350.452 10.0824 350.275 10.8281 349.922 11.4801C349.568 12.1321 349.046 12.6456 348.355 13.0206C347.665 13.3913 346.815 13.5767 345.805 13.5767H342.551V11.6271H345.485C346.074 11.6271 346.555 11.5249 346.93 11.3203C347.305 11.1158 347.582 10.8345 347.761 10.4766C347.944 10.1186 348.036 9.70739 348.036 9.2429C348.036 8.77841 347.944 8.36932 347.761 8.01562C347.582 7.66193 347.303 7.38707 346.924 7.19105C346.549 6.99077 346.065 6.89062 345.473 6.89062H343.299V18H340.928ZM352.41 18V8.18182H354.653V9.81818H354.756C354.934 9.25142 355.241 8.81463 355.676 8.50781C356.115 8.19673 356.616 8.04119 357.178 8.04119C357.306 8.04119 357.449 8.04758 357.606 8.06037C357.768 8.06889 357.903 8.08381 358.009 8.10511V10.2337C357.911 10.1996 357.756 10.1697 357.542 10.1442C357.334 10.1143 357.131 10.0994 356.935 10.0994C356.513 10.0994 356.134 10.1911 355.797 10.3743C355.465 10.5533 355.203 10.8026 355.011 11.1222C354.819 11.4418 354.724 11.8104 354.724 12.228V18H352.41ZM363.425 18.1918C362.466 18.1918 361.635 17.9808 360.932 17.5589C360.229 17.1371 359.683 16.5469 359.295 15.7884C358.912 15.0298 358.72 14.1435 358.72 13.1293C358.72 12.1151 358.912 11.2266 359.295 10.4638C359.683 9.70099 360.229 9.10866 360.932 8.68679C361.635 8.26491 362.466 8.05398 363.425 8.05398C364.384 8.05398 365.214 8.26491 365.918 8.68679C366.621 9.10866 367.164 9.70099 367.548 10.4638C367.935 11.2266 368.129 12.1151 368.129 13.1293C368.129 14.1435 367.935 15.0298 367.548 15.7884C367.164 16.5469 366.621 17.1371 365.918 17.5589C365.214 17.9808 364.384 18.1918 363.425 18.1918ZM363.438 16.3381C363.957 16.3381 364.392 16.1953 364.741 15.9098C365.091 15.62 365.351 15.2322 365.521 14.7464C365.696 14.2607 365.783 13.7195 365.783 13.1229C365.783 12.522 365.696 11.9787 365.521 11.4929C365.351 11.0028 365.091 10.6129 364.741 10.3232C364.392 10.0334 363.957 9.88849 363.438 9.88849C362.905 9.88849 362.462 10.0334 362.108 10.3232C361.759 10.6129 361.496 11.0028 361.322 11.4929C361.151 11.9787 361.066 12.522 361.066 13.1229C361.066 13.7195 361.151 14.2607 361.322 14.7464C361.496 15.2322 361.759 15.62 362.108 15.9098C362.462 16.1953 362.905 16.3381 363.438 16.3381ZM373.737 18.1726C372.965 18.1726 372.275 17.9744 371.666 17.5781C371.056 17.1818 370.575 16.6065 370.221 15.8523C369.867 15.098 369.691 14.1818 369.691 13.1037C369.691 12.0128 369.869 11.0923 370.227 10.3423C370.59 9.58807 371.078 9.01918 371.691 8.63565C372.305 8.24787 372.989 8.05398 373.743 8.05398C374.318 8.05398 374.791 8.15199 375.162 8.34801C375.533 8.53977 375.827 8.77202 376.044 9.04474C376.262 9.31321 376.43 9.56676 376.549 9.8054H376.645V4.90909H378.965V18H376.69V16.4531H376.549C376.43 16.6918 376.257 16.9453 376.031 17.2138C375.806 17.478 375.507 17.7038 375.137 17.8913C374.766 18.0788 374.299 18.1726 373.737 18.1726ZM374.382 16.2741C374.872 16.2741 375.29 16.142 375.635 15.8778C375.98 15.6094 376.242 15.2365 376.421 14.7592C376.6 14.282 376.69 13.7259 376.69 13.0909C376.69 12.456 376.6 11.9041 376.421 11.4354C376.247 10.9666 375.987 10.6023 375.642 10.3423C375.301 10.0824 374.881 9.95241 374.382 9.95241C373.867 9.95241 373.436 10.0866 373.091 10.3551C372.746 10.6236 372.486 10.9943 372.311 11.4673C372.137 11.9403 372.049 12.4815 372.049 13.0909C372.049 13.7045 372.137 14.2521 372.311 14.7337C372.49 15.2109 372.752 15.5881 373.097 15.8651C373.447 16.1378 373.875 16.2741 374.382 16.2741ZM387.689 13.8707V8.18182H390.003V18H387.759V16.255H387.657C387.435 16.8047 387.071 17.2543 386.564 17.6037C386.061 17.9531 385.441 18.1278 384.704 18.1278C384.06 18.1278 383.491 17.9851 382.997 17.6996C382.507 17.4098 382.124 16.9901 381.847 16.4403C381.57 15.8864 381.431 15.2173 381.431 14.4332V8.18182H383.745V14.0753C383.745 14.6974 383.915 15.1918 384.256 15.5582C384.597 15.9247 385.045 16.108 385.599 16.108C385.94 16.108 386.27 16.0249 386.589 15.8587C386.909 15.6925 387.171 15.4453 387.376 15.1172C387.585 14.7848 387.689 14.3693 387.689 13.8707ZM396.665 18.1918C395.685 18.1918 394.843 17.9766 394.14 17.5462C393.441 17.1158 392.902 16.5213 392.523 15.7628C392.148 15 391.96 14.1222 391.96 13.1293C391.96 12.1321 392.152 11.2521 392.536 10.4893C392.919 9.7223 393.46 9.12571 394.159 8.69957C394.862 8.26918 395.693 8.05398 396.652 8.05398C397.449 8.05398 398.154 8.20099 398.768 8.49503C399.386 8.7848 399.878 9.19602 400.244 9.72869C400.611 10.2571 400.82 10.875 400.871 11.5824H398.659C398.57 11.1094 398.357 10.7152 398.02 10.3999C397.688 10.0803 397.242 9.92045 396.684 9.92045C396.211 9.92045 395.796 10.0483 395.438 10.304C395.08 10.5554 394.801 10.9176 394.6 11.3906C394.404 11.8636 394.306 12.4304 394.306 13.0909C394.306 13.7599 394.404 14.3352 394.6 14.8168C394.796 15.294 395.071 15.6626 395.425 15.9226C395.783 16.1783 396.203 16.3061 396.684 16.3061C397.025 16.3061 397.33 16.2422 397.598 16.1143C397.871 15.9822 398.099 15.7926 398.282 15.5455C398.465 15.2983 398.591 14.9979 398.659 14.6442H400.871C400.816 15.3388 400.611 15.9545 400.257 16.4915C399.904 17.0241 399.422 17.4418 398.813 17.7443C398.203 18.0426 397.487 18.1918 396.665 18.1918ZM407.674 8.18182V9.97159H402.029V8.18182H407.674ZM403.423 5.82955H405.737V15.0469C405.737 15.358 405.784 15.5966 405.877 15.7628C405.975 15.9247 406.103 16.0355 406.261 16.0952C406.419 16.1548 406.593 16.1847 406.785 16.1847C406.93 16.1847 407.062 16.174 407.181 16.1527C407.305 16.1314 407.399 16.1122 407.463 16.0952L407.853 17.9041C407.729 17.9467 407.552 17.9936 407.322 18.0447C407.096 18.0959 406.819 18.1257 406.491 18.1342C405.912 18.1513 405.39 18.0639 404.925 17.8722C404.461 17.6761 404.092 17.3736 403.819 16.9645C403.551 16.5554 403.419 16.044 403.423 15.4304V5.82955ZM409.609 18V8.18182H411.923V18H409.609ZM410.772 6.78835C410.406 6.78835 410.09 6.6669 409.826 6.42401C409.562 6.17685 409.43 5.88068 409.43 5.53551C409.43 5.18608 409.562 4.88991 409.826 4.64702C410.09 4.39986 410.406 4.27628 410.772 4.27628C411.143 4.27628 411.458 4.39986 411.718 4.64702C411.982 4.88991 412.115 5.18608 412.115 5.53551C412.115 5.88068 411.982 6.17685 411.718 6.42401C411.458 6.6669 411.143 6.78835 410.772 6.78835ZM418.585 18.1918C417.626 18.1918 416.795 17.9808 416.092 17.5589C415.389 17.1371 414.843 16.5469 414.456 15.7884C414.072 15.0298 413.88 14.1435 413.88 13.1293C413.88 12.1151 414.072 11.2266 414.456 10.4638C414.843 9.70099 415.389 9.10866 416.092 8.68679C416.795 8.26491 417.626 8.05398 418.585 8.05398C419.544 8.05398 420.375 8.26491 421.078 8.68679C421.781 9.10866 422.324 9.70099 422.708 10.4638C423.096 11.2266 423.289 12.1151 423.289 13.1293C423.289 14.1435 423.096 15.0298 422.708 15.7884C422.324 16.5469 421.781 17.1371 421.078 17.5589C420.375 17.9808 419.544 18.1918 418.585 18.1918ZM418.598 16.3381C419.118 16.3381 419.552 16.1953 419.902 15.9098C420.251 15.62 420.511 15.2322 420.681 14.7464C420.856 14.2607 420.944 13.7195 420.944 13.1229C420.944 12.522 420.856 11.9787 420.681 11.4929C420.511 11.0028 420.251 10.6129 419.902 10.3232C419.552 10.0334 419.118 9.88849 418.598 9.88849C418.065 9.88849 417.622 10.0334 417.268 10.3232C416.919 10.6129 416.657 11.0028 416.482 11.4929C416.311 11.9787 416.226 12.522 416.226 13.1229C416.226 13.7195 416.311 14.2607 416.482 14.7464C416.657 15.2322 416.919 15.62 417.268 15.9098C417.622 16.1953 418.065 16.3381 418.598 16.3381ZM427.567 12.2472V18H425.253V8.18182H427.465V9.85014H427.58C427.806 9.30043 428.166 8.86364 428.66 8.53977C429.159 8.21591 429.775 8.05398 430.508 8.05398C431.185 8.05398 431.775 8.19886 432.278 8.48864C432.785 8.77841 433.177 9.19815 433.454 9.74787C433.736 10.2976 433.874 10.9645 433.87 11.7486V18H431.556V12.1065C431.556 11.4503 431.385 10.9368 431.045 10.5661C430.708 10.1953 430.241 10.0099 429.645 10.0099C429.24 10.0099 428.88 10.0994 428.564 10.2784C428.253 10.4531 428.008 10.7067 427.829 11.0391C427.655 11.3714 427.567 11.7741 427.567 12.2472ZM183.885 30.7741C184.091 29.5279 184.444 28.3812 184.944 27.3338C185.445 26.2865 186.084 25.3203 186.863 24.4354H188.225C187.927 24.7635 187.632 25.1662 187.34 25.6435C187.049 26.1207 186.777 26.6444 186.525 27.2145C186.273 27.7812 186.051 28.3696 185.859 28.9794C185.67 29.5859 185.526 30.1842 185.426 30.7741C185.294 31.563 185.237 32.3617 185.257 33.1705C185.281 33.9792 185.367 34.7299 185.516 35.4226C185.668 36.1153 185.872 36.6804 186.127 37.1179H184.76C184.28 36.233 183.961 35.2668 183.806 34.2195C183.65 33.1721 183.676 32.0237 183.885 30.7741ZM189.693 35L188.719 27.3636H190.255L190.817 32.9716H190.891L193.328 27.3636H194.864L195.421 32.9467H195.495L197.916 27.3636H199.453L195.938 35H194.421L193.785 29.4865H193.671L191.205 35H189.693ZM199.59 35L200.863 27.3636H202.35L201.077 35H199.59ZM201.917 26.1705C201.659 26.1705 201.44 26.0843 201.261 25.9119C201.085 25.7363 201.004 25.5275 201.017 25.2855C201.031 25.0402 201.133 24.8314 201.326 24.6591C201.518 24.4834 201.742 24.3956 201.997 24.3956C202.255 24.3956 202.472 24.4834 202.648 24.6591C202.824 24.8314 202.907 25.0402 202.897 25.2855C202.883 25.5275 202.781 25.7363 202.588 25.9119C202.399 26.0843 202.176 26.1705 201.917 26.1705ZM207.914 27.3636L207.72 28.5568H203.549L203.743 27.3636H207.914ZM205.16 25.5341H206.646L205.443 32.7578C205.397 33.0462 205.405 33.2633 205.468 33.4091C205.531 33.5516 205.627 33.6494 205.756 33.7024C205.889 33.7521 206.037 33.777 206.199 33.777C206.318 33.777 206.423 33.7687 206.512 33.7521C206.602 33.7356 206.673 33.7223 206.726 33.7124L206.805 34.9403C206.706 34.9735 206.572 35.0066 206.403 35.0398C206.237 35.0762 206.035 35.0961 205.796 35.0994C205.405 35.1061 205.052 35.0365 204.737 34.8906C204.422 34.7415 204.187 34.5161 204.031 34.2145C203.876 33.9096 203.837 33.5268 203.917 33.0661L205.16 25.5341ZM210.687 30.4659L209.941 35H208.455L210.145 24.8182H211.612L210.985 28.6065H211.08C211.322 28.1922 211.647 27.8658 212.054 27.6271C212.465 27.3852 212.969 27.2642 213.566 27.2642C214.089 27.2642 214.528 27.3719 214.883 27.5874C215.241 27.8028 215.493 28.1243 215.639 28.5518C215.788 28.9761 215.811 29.5064 215.708 30.1428L214.893 35H213.407L214.182 30.3217C214.275 29.7616 214.202 29.3274 213.963 29.0192C213.725 28.7076 213.352 28.5518 212.845 28.5518C212.49 28.5518 212.162 28.6264 211.86 28.7756C211.562 28.9247 211.31 29.1435 211.105 29.4318C210.899 29.7169 210.76 30.0616 210.687 30.4659ZM220.577 35L221.85 27.3636H223.286L223.082 28.5767H223.162C223.368 28.1657 223.667 27.8426 224.062 27.6072C224.456 27.3686 224.877 27.2493 225.325 27.2493C225.421 27.2493 225.53 27.2526 225.653 27.2592C225.775 27.2625 225.875 27.2708 225.951 27.2841L225.712 28.706C225.656 28.6894 225.553 28.6712 225.404 28.6513C225.255 28.6281 225.101 28.6165 224.942 28.6165C224.594 28.6165 224.271 28.6911 223.972 28.8402C223.674 28.986 223.424 29.1899 223.222 29.4517C223.02 29.7102 222.889 30.0052 222.829 30.3366L222.063 35H220.577ZM228.975 35.1541C228.226 35.1541 227.606 34.9934 227.116 34.6719C226.628 34.3471 226.287 33.8913 226.092 33.3047C225.896 32.7147 225.864 32.0237 225.997 31.2315C226.126 30.4493 226.387 29.7599 226.778 29.1634C227.169 28.5668 227.656 28.1011 228.239 27.7663C228.826 27.4316 229.474 27.2642 230.183 27.2642C230.614 27.2642 231.02 27.3355 231.401 27.478C231.786 27.6205 232.112 27.8442 232.381 28.1491C232.649 28.4541 232.835 28.8501 232.937 29.3374C233.043 29.8213 233.04 30.4096 232.927 31.1023L232.843 31.6293H226.768L226.942 30.5156H231.555C231.625 30.1245 231.607 29.7782 231.501 29.4766C231.395 29.1716 231.212 28.9313 230.954 28.7557C230.699 28.58 230.377 28.4922 229.989 28.4922C229.592 28.4922 229.22 28.5966 228.876 28.8054C228.531 29.0142 228.243 29.281 228.011 29.6058C227.782 29.9273 227.638 30.2588 227.578 30.6001L227.404 31.6193C227.318 32.1761 227.333 32.6236 227.449 32.9616C227.568 33.2997 227.777 33.545 228.075 33.6974C228.373 33.8499 228.746 33.9261 229.194 33.9261C229.482 33.9261 229.749 33.8864 229.994 33.8068C230.243 33.724 230.463 33.603 230.655 33.4439C230.848 33.2815 231.008 33.0793 231.138 32.8374L232.5 33.0909C232.318 33.5052 232.056 33.8681 231.714 34.1797C231.373 34.4879 230.97 34.7282 230.506 34.9006C230.046 35.0696 229.535 35.1541 228.975 35.1541ZM238.626 37.8636L239.292 33.8118H239.208C239.092 33.9742 238.933 34.1598 238.731 34.3686C238.528 34.5774 238.268 34.7597 237.95 34.9155C237.635 35.0713 237.246 35.1491 236.782 35.1491C236.162 35.1491 235.638 34.9917 235.211 34.6768C234.783 34.3587 234.48 33.9062 234.301 33.3196C234.125 32.7296 234.105 32.022 234.241 31.1967C234.377 30.3714 234.632 29.6655 235.007 29.0788C235.381 28.4922 235.835 28.0431 236.369 27.7315C236.903 27.42 237.478 27.2642 238.094 27.2642C238.568 27.2642 238.936 27.3438 239.198 27.5028C239.463 27.6586 239.659 27.8409 239.785 28.0497C239.91 28.2585 240.005 28.4425 240.068 28.6016H240.187L240.401 27.3636H241.853L240.113 37.8636H238.626ZM237.314 33.8814C237.745 33.8814 238.127 33.7687 238.462 33.5433C238.797 33.3146 239.074 32.9981 239.292 32.5938C239.514 32.1894 239.67 31.7187 239.76 31.1818C239.849 30.6515 239.849 30.1875 239.76 29.7898C239.674 29.392 239.501 29.0821 239.243 28.8601C238.984 28.638 238.639 28.527 238.209 28.527C237.758 28.527 237.363 28.643 237.025 28.875C236.687 29.107 236.41 29.4235 236.195 29.8246C235.98 30.2256 235.829 30.678 235.743 31.1818C235.66 31.6922 235.661 32.1513 235.748 32.5589C235.834 32.9666 236.006 33.2898 236.265 33.5284C236.526 33.7637 236.876 33.8814 237.314 33.8814ZM247.953 31.8331L248.699 27.3636H250.19L248.917 35H247.456L247.679 33.6776H247.6C247.361 34.0852 247.023 34.425 246.586 34.6967C246.151 34.9652 245.648 35.0994 245.074 35.0994C244.584 35.0994 244.168 34.9917 243.826 34.7763C243.488 34.5575 243.248 34.2344 243.106 33.8068C242.963 33.3793 242.943 32.8506 243.046 32.2209L243.861 27.3636H245.348L244.567 32.0419C244.484 32.5623 244.562 32.9766 244.801 33.2848C245.04 33.593 245.388 33.7472 245.845 33.7472C246.123 33.7472 246.412 33.6776 246.71 33.5384C247.008 33.3991 247.272 33.1887 247.5 32.907C247.732 32.6252 247.883 32.2673 247.953 31.8331ZM250.915 35L252.187 27.3636H253.674L252.401 35H250.915ZM253.241 26.1705C252.983 26.1705 252.764 26.0843 252.585 25.9119C252.409 25.7363 252.328 25.5275 252.342 25.2855C252.355 25.0402 252.458 24.8314 252.65 24.6591C252.842 24.4834 253.066 24.3956 253.321 24.3956C253.579 24.3956 253.797 24.4834 253.972 24.6591C254.148 24.8314 254.231 25.0402 254.221 25.2855C254.208 25.5275 254.105 25.7363 253.913 25.9119C253.724 26.0843 253.5 26.1705 253.241 26.1705ZM254.401 35L255.674 27.3636H257.111L256.907 28.5767H256.986C257.192 28.1657 257.492 27.8426 257.886 27.6072C258.281 27.3686 258.701 27.2493 259.149 27.2493C259.245 27.2493 259.354 27.2526 259.477 27.2592C259.6 27.2625 259.699 27.2708 259.775 27.2841L259.537 28.706C259.48 28.6894 259.378 28.6712 259.228 28.6513C259.079 28.6281 258.925 28.6165 258.766 28.6165C258.418 28.6165 258.095 28.6911 257.797 28.8402C257.498 28.986 257.248 29.1899 257.046 29.4517C256.844 29.7102 256.713 30.0052 256.653 30.3366L255.888 35H254.401ZM262.799 35.1541C262.05 35.1541 261.43 34.9934 260.94 34.6719C260.453 34.3471 260.111 33.8913 259.916 33.3047C259.72 32.7147 259.689 32.0237 259.821 31.2315C259.951 30.4493 260.211 29.7599 260.602 29.1634C260.993 28.5668 261.48 28.1011 262.063 27.7663C262.65 27.4316 263.298 27.2642 264.007 27.2642C264.438 27.2642 264.844 27.3355 265.225 27.478C265.61 27.6205 265.936 27.8442 266.205 28.1491C266.473 28.4541 266.659 28.8501 266.762 29.3374C266.868 29.8213 266.864 30.4096 266.752 31.1023L266.667 31.6293H260.592L260.766 30.5156H265.38C265.449 30.1245 265.431 29.7782 265.325 29.4766C265.219 29.1716 265.036 28.9313 264.778 28.7557C264.523 28.58 264.201 28.4922 263.813 28.4922C263.416 28.4922 263.045 28.5966 262.7 28.8054C262.355 29.0142 262.067 29.281 261.835 29.6058C261.606 29.9273 261.462 30.2588 261.402 30.6001L261.228 31.6193C261.142 32.1761 261.157 32.6236 261.273 32.9616C261.392 33.2997 261.601 33.545 261.899 33.6974C262.198 33.8499 262.571 33.9261 263.018 33.9261C263.306 33.9261 263.573 33.8864 263.818 33.8068C264.067 33.724 264.287 33.603 264.48 33.4439C264.672 33.2815 264.833 33.0793 264.962 32.8374L266.324 33.0909C266.142 33.5052 265.88 33.8681 265.539 34.1797C265.197 34.4879 264.795 34.7282 264.331 34.9006C263.87 35.0696 263.359 35.1541 262.799 35.1541ZM270.621 35.1491C270.001 35.1491 269.476 34.9917 269.045 34.6768C268.617 34.3587 268.314 33.9062 268.135 33.3196C267.959 32.7296 267.939 32.022 268.075 31.1967C268.215 30.3714 268.471 29.6655 268.846 29.0788C269.22 28.4922 269.675 28.0431 270.208 27.7315C270.742 27.42 271.317 27.2642 271.933 27.2642C272.407 27.2642 272.775 27.3438 273.037 27.5028C273.302 27.6586 273.498 27.8409 273.624 28.0497C273.75 28.2585 273.844 28.4425 273.907 28.6016H273.992L274.623 24.8182H276.109L274.419 35H272.967L273.171 33.8118H273.047C272.931 33.9742 272.77 34.1598 272.565 34.3686C272.363 34.5774 272.104 34.7597 271.789 34.9155C271.474 35.0713 271.085 35.1491 270.621 35.1491ZM271.123 33.8814C271.551 33.8814 271.933 33.7687 272.271 33.5433C272.613 33.3146 272.896 32.9981 273.122 32.5938C273.35 32.1894 273.509 31.7187 273.599 31.1818C273.688 30.6515 273.687 30.1875 273.594 29.7898C273.501 29.392 273.322 29.0821 273.057 28.8601C272.792 28.638 272.442 28.527 272.008 28.527C271.56 28.527 271.171 28.643 270.84 28.875C270.508 29.107 270.236 29.4235 270.024 29.8246C269.815 30.2256 269.67 30.678 269.587 31.1818C269.501 31.6922 269.497 32.1513 269.577 32.5589C269.656 32.9666 269.824 33.2898 270.079 33.5284C270.334 33.7637 270.682 33.8814 271.123 33.8814ZM280.241 35L281.514 27.3636H282.95L282.747 28.5767H282.826C283.032 28.1657 283.332 27.8426 283.726 27.6072C284.12 27.3686 284.541 27.2493 284.989 27.2493C285.085 27.2493 285.194 27.2526 285.317 27.2592C285.439 27.2625 285.539 27.2708 285.615 27.2841L285.377 28.706C285.32 28.6894 285.217 28.6712 285.068 28.6513C284.919 28.6281 284.765 28.6165 284.606 28.6165C284.258 28.6165 283.935 28.6911 283.636 28.8402C283.338 28.986 283.088 29.1899 282.886 29.4517C282.684 29.7102 282.553 30.0052 282.493 30.3366L281.727 35H280.241ZM291.006 31.8331L291.751 27.3636H293.243L291.97 35H290.508L290.732 33.6776H290.653C290.414 34.0852 290.076 34.425 289.638 34.6967C289.204 34.9652 288.7 35.0994 288.127 35.0994C287.637 35.0994 287.221 34.9917 286.879 34.7763C286.541 34.5575 286.301 34.2344 286.158 33.8068C286.016 33.3793 285.996 32.8506 286.099 32.2209L286.914 27.3636H288.4L287.62 32.0419C287.537 32.5623 287.615 32.9766 287.854 33.2848C288.092 33.593 288.44 33.7472 288.898 33.7472C289.176 33.7472 289.464 33.6776 289.763 33.5384C290.061 33.3991 290.324 33.1887 290.553 32.907C290.785 32.6252 290.936 32.2673 291.006 31.8331ZM296.205 30.4659L295.459 35H293.972L295.245 27.3636H296.672L296.463 28.6065H296.558C296.8 28.1989 297.129 27.8741 297.547 27.6321C297.968 27.3868 298.465 27.2642 299.038 27.2642C299.555 27.2642 299.99 27.3736 300.341 27.5923C300.696 27.8078 300.946 28.1293 301.092 28.5568C301.241 28.9844 301.264 29.513 301.161 30.1428L300.346 35H298.859L299.64 30.3217C299.729 29.7682 299.657 29.3357 299.421 29.0241C299.189 28.7093 298.82 28.5518 298.313 28.5518C297.968 28.5518 297.648 28.6264 297.353 28.7756C297.061 28.9247 296.814 29.1435 296.612 29.4318C296.413 29.7169 296.278 30.0616 296.205 30.4659ZM307.172 27.3636L306.978 28.5568H302.807L303.001 27.3636H307.172ZM304.418 25.5341H305.904L304.701 32.7578C304.655 33.0462 304.663 33.2633 304.726 33.4091C304.789 33.5516 304.885 33.6494 305.014 33.7024C305.147 33.7521 305.294 33.777 305.457 33.777C305.576 33.777 305.68 33.7687 305.77 33.7521C305.859 33.7356 305.931 33.7223 305.984 33.7124L306.063 34.9403C305.964 34.9735 305.83 35.0066 305.661 35.0398C305.495 35.0762 305.293 35.0961 305.054 35.0994C304.663 35.1061 304.31 35.0365 303.995 34.8906C303.68 34.7415 303.445 34.5161 303.289 34.2145C303.133 33.9096 303.095 33.5268 303.175 33.0661L304.418 25.5341ZM307.544 35L308.816 27.3636H310.303L309.03 35H307.544ZM309.87 26.1705C309.612 26.1705 309.393 26.0843 309.214 25.9119C309.038 25.7363 308.957 25.5275 308.97 25.2855C308.984 25.0402 309.086 24.8314 309.279 24.6591C309.471 24.4834 309.695 24.3956 309.95 24.3956C310.208 24.3956 310.425 24.4834 310.601 24.6591C310.777 24.8314 310.86 25.0402 310.85 25.2855C310.836 25.5275 310.734 25.7363 310.541 25.9119C310.353 26.0843 310.129 26.1705 309.87 26.1705ZM311.035 35L312.308 27.3636H313.734L313.526 28.6065H313.62C313.852 28.1856 314.167 27.8575 314.565 27.6222C314.966 27.3835 315.42 27.2642 315.927 27.2642C316.431 27.2642 316.837 27.3835 317.145 27.6222C317.457 27.8608 317.66 28.1889 317.756 28.6065H317.836C318.081 28.1955 318.424 27.8691 318.865 27.6271C319.306 27.3852 319.801 27.2642 320.352 27.2642C321.038 27.2642 321.565 27.483 321.933 27.9205C322.304 28.3546 322.417 29.0076 322.271 29.8793L321.416 35H319.924L320.759 30.0185C320.842 29.4981 320.763 29.1236 320.521 28.8949C320.279 28.6629 319.962 28.5469 319.571 28.5469C319.087 28.5469 318.686 28.696 318.368 28.9943C318.05 29.2893 317.854 29.6688 317.781 30.1328L316.961 35H315.484L316.335 29.924C316.401 29.5064 316.325 29.1733 316.106 28.9247C315.89 28.6728 315.576 28.5469 315.161 28.5469C314.88 28.5469 314.606 28.6214 314.341 28.7706C314.079 28.9197 313.855 29.1252 313.67 29.3871C313.484 29.6489 313.363 29.9505 313.307 30.2919L312.521 35H311.035ZM326.674 35.1541C325.925 35.1541 325.305 34.9934 324.815 34.6719C324.328 34.3471 323.986 33.8913 323.791 33.3047C323.595 32.7147 323.564 32.0237 323.696 31.2315C323.826 30.4493 324.086 29.7599 324.477 29.1634C324.868 28.5668 325.355 28.1011 325.938 27.7663C326.525 27.4316 327.173 27.2642 327.882 27.2642C328.313 27.2642 328.719 27.3355 329.1 27.478C329.485 27.6205 329.811 27.8442 330.08 28.1491C330.348 28.4541 330.534 28.8501 330.637 29.3374C330.743 29.8213 330.739 30.4096 330.627 31.1023L330.542 31.6293H324.467L324.641 30.5156H329.255C329.324 30.1245 329.306 29.7782 329.2 29.4766C329.094 29.1716 328.911 28.9313 328.653 28.7557C328.398 28.58 328.076 28.4922 327.688 28.4922C327.291 28.4922 326.92 28.5966 326.575 28.8054C326.23 29.0142 325.942 29.281 325.71 29.6058C325.481 29.9273 325.337 30.2588 325.277 30.6001L325.103 31.6193C325.017 32.1761 325.032 32.6236 325.148 32.9616C325.267 33.2997 325.476 33.545 325.774 33.6974C326.073 33.8499 326.446 33.9261 326.893 33.9261C327.181 33.9261 327.448 33.8864 327.693 33.8068C327.942 33.724 328.162 33.603 328.355 33.4439C328.547 33.2815 328.708 33.0793 328.837 32.8374L330.199 33.0909C330.017 33.5052 329.755 33.8681 329.414 34.1797C329.072 34.4879 328.67 34.7282 328.206 34.9006C327.745 35.0696 327.234 35.1541 326.674 35.1541ZM338.549 35.1541C337.806 35.1541 337.198 34.9867 336.724 34.652C336.25 34.3139 335.921 33.8482 335.735 33.255C335.549 32.6617 335.52 31.9822 335.646 31.2166C335.771 30.4411 336.028 29.7566 336.416 29.1634C336.807 28.5668 337.296 28.1011 337.883 27.7663C338.473 27.4316 339.127 27.2642 339.847 27.2642C340.427 27.2642 340.925 27.3719 341.343 27.5874C341.761 27.7995 342.077 28.0978 342.293 28.4822C342.508 28.8667 342.601 29.3158 342.571 29.8295H341.124C341.101 29.4716 340.968 29.1634 340.726 28.9048C340.485 28.6463 340.128 28.517 339.658 28.517C339.243 28.517 338.862 28.6264 338.514 28.8452C338.166 29.0606 337.873 29.3688 337.634 29.7699C337.396 30.1676 337.233 30.6383 337.147 31.1818C337.054 31.7386 337.059 32.2192 337.162 32.6236C337.265 33.0279 337.454 33.3411 337.729 33.5632C338.004 33.7853 338.35 33.8963 338.768 33.8963C339.053 33.8963 339.318 33.8449 339.563 33.7422C339.812 33.6361 340.03 33.4853 340.219 33.2898C340.412 33.0942 340.561 32.8589 340.667 32.5838H342.119C341.976 33.0777 341.737 33.5185 341.403 33.9062C341.071 34.294 340.664 34.599 340.18 34.821C339.696 35.0431 339.152 35.1541 338.549 35.1541ZM346.547 35.1541C345.821 35.1541 345.215 34.9884 344.727 34.657C344.24 34.3222 343.897 33.8549 343.698 33.255C343.503 32.6518 343.47 31.9508 343.599 31.152C343.725 30.3698 343.978 29.687 344.359 29.1037C344.744 28.5204 345.225 28.0679 345.801 27.7464C346.381 27.425 347.026 27.2642 347.735 27.2642C348.461 27.2642 349.066 27.4316 349.55 27.7663C350.037 28.1011 350.38 28.5701 350.579 29.1733C350.778 29.7765 350.813 30.4792 350.683 31.2812C350.557 32.0568 350.301 32.7363 349.913 33.3196C349.528 33.8996 349.048 34.3504 348.471 34.6719C347.894 34.9934 347.253 35.1541 346.547 35.1541ZM346.631 33.9062C347.109 33.9062 347.525 33.7803 347.879 33.5284C348.237 33.2765 348.529 32.9418 348.754 32.5241C348.98 32.1065 349.134 31.6491 349.217 31.152C349.293 30.6714 349.291 30.2322 349.212 29.8345C349.136 29.4335 348.97 29.112 348.715 28.87C348.459 28.6281 348.105 28.5071 347.651 28.5071C347.173 28.5071 346.754 28.6347 346.393 28.8899C346.035 29.1418 345.743 29.4782 345.518 29.8991C345.296 30.3201 345.145 30.7791 345.065 31.2763C344.989 31.7536 344.989 32.1927 345.065 32.5938C345.142 32.9915 345.307 33.3097 345.563 33.5483C345.818 33.7869 346.174 33.9062 346.631 33.9062ZM351.736 35L353.009 27.3636H354.436L354.227 28.6065H354.321C354.553 28.1856 354.868 27.8575 355.266 27.6222C355.667 27.3835 356.121 27.2642 356.628 27.2642C357.132 27.2642 357.538 27.3835 357.846 27.6222C358.158 27.8608 358.362 28.1889 358.458 28.6065H358.537C358.782 28.1955 359.126 27.8691 359.566 27.6271C360.007 27.3852 360.503 27.2642 361.053 27.2642C361.739 27.2642 362.266 27.483 362.634 27.9205C363.005 28.3546 363.118 29.0076 362.972 29.8793L362.117 35H360.625L361.46 30.0185C361.543 29.4981 361.464 29.1236 361.222 28.8949C360.98 28.6629 360.663 28.5469 360.272 28.5469C359.788 28.5469 359.387 28.696 359.069 28.9943C358.751 29.2893 358.555 29.6688 358.483 30.1328L357.662 35H356.186L357.036 29.924C357.102 29.5064 357.026 29.1733 356.807 28.9247C356.592 28.6728 356.277 28.5469 355.862 28.5469C355.581 28.5469 355.307 28.6214 355.042 28.7706C354.78 28.9197 354.557 29.1252 354.371 29.3871C354.185 29.6489 354.064 29.9505 354.008 30.2919L353.223 35H351.736ZM363.632 37.8636L365.392 27.3636H366.843L366.64 28.6016H366.764C366.877 28.4425 367.029 28.2585 367.221 28.0497C367.417 27.8409 367.674 27.6586 367.992 27.5028C368.31 27.3438 368.706 27.2642 369.18 27.2642C369.797 27.2642 370.319 27.42 370.746 27.7315C371.174 28.0431 371.479 28.4922 371.661 29.0788C371.843 29.6655 371.866 30.3714 371.731 31.1967C371.595 32.022 371.339 32.7296 370.965 33.3196C370.59 33.9062 370.136 34.3587 369.603 34.6768C369.072 34.9917 368.497 35.1491 367.878 35.1491C367.414 35.1491 367.047 35.0713 366.779 34.9155C366.514 34.7597 366.316 34.5774 366.187 34.3686C366.058 34.1598 365.96 33.9742 365.894 33.8118H365.804L365.128 37.8636H363.632ZM366.212 31.1818C366.126 31.7187 366.126 32.1894 366.212 32.5938C366.298 32.9981 366.471 33.3146 366.729 33.5433C366.991 33.7687 367.336 33.8814 367.763 33.8814C368.207 33.8814 368.597 33.7637 368.932 33.5284C369.266 33.2898 369.543 32.9666 369.762 32.5589C369.984 32.1513 370.138 31.6922 370.224 31.1818C370.307 30.678 370.305 30.2256 370.219 29.8246C370.136 29.4235 369.966 29.107 369.707 28.875C369.449 28.643 369.096 28.527 368.648 28.527C368.214 28.527 367.83 28.638 367.495 28.8601C367.163 29.0821 366.888 29.392 366.669 29.7898C366.451 30.1875 366.298 30.6515 366.212 31.1818ZM376.01 35.1541C375.284 35.1541 374.677 34.9884 374.19 34.657C373.703 34.3222 373.36 33.8549 373.161 33.255C372.966 32.6518 372.932 31.9508 373.062 31.152C373.188 30.3698 373.441 29.687 373.822 29.1037C374.207 28.5204 374.687 28.0679 375.264 27.7464C375.844 27.425 376.489 27.2642 377.198 27.2642C377.924 27.2642 378.529 27.4316 379.013 27.7663C379.5 28.1011 379.843 28.5701 380.042 29.1733C380.241 29.7765 380.275 30.4792 380.146 31.2812C380.02 32.0568 379.763 32.7363 379.376 33.3196C378.991 33.8996 378.511 34.3504 377.934 34.6719C377.357 34.9934 376.716 35.1541 376.01 35.1541ZM376.094 33.9062C376.572 33.9062 376.988 33.7803 377.342 33.5284C377.7 33.2765 377.992 32.9418 378.217 32.5241C378.443 32.1065 378.597 31.6491 378.68 31.152C378.756 30.6714 378.754 30.2322 378.675 29.8345C378.598 29.4335 378.433 29.112 378.177 28.87C377.922 28.6281 377.568 28.5071 377.114 28.5071C376.636 28.5071 376.217 28.6347 375.856 28.8899C375.498 29.1418 375.206 29.4782 374.981 29.8991C374.759 30.3201 374.608 30.7791 374.528 31.2763C374.452 31.7536 374.452 32.1927 374.528 32.5938C374.605 32.9915 374.77 33.3097 375.025 33.5483C375.281 33.7869 375.637 33.9062 376.094 33.9062ZM383.431 30.4659L382.685 35H381.199L382.472 27.3636H383.899L383.69 28.6065H383.784C384.026 28.1989 384.356 27.8741 384.774 27.6321C385.194 27.3868 385.692 27.2642 386.265 27.2642C386.782 27.2642 387.216 27.3736 387.568 27.5923C387.922 27.8078 388.172 28.1293 388.318 28.5568C388.467 28.9844 388.491 29.513 388.388 30.1428L387.573 35H386.086L386.867 30.3217C386.956 29.7682 386.883 29.3357 386.648 29.0241C386.416 28.7093 386.046 28.5518 385.539 28.5518C385.194 28.5518 384.875 28.6264 384.58 28.7756C384.288 28.9247 384.041 29.1435 383.839 29.4318C383.64 29.7169 383.504 30.0616 383.431 30.4659ZM392.832 35.1541C392.083 35.1541 391.464 34.9934 390.973 34.6719C390.486 34.3471 390.145 33.8913 389.949 33.3047C389.753 32.7147 389.722 32.0237 389.854 31.2315C389.984 30.4493 390.244 29.7599 390.635 29.1634C391.026 28.5668 391.513 28.1011 392.097 27.7663C392.683 27.4316 393.331 27.2642 394.041 27.2642C394.471 27.2642 394.877 27.3355 395.259 27.478C395.643 27.6205 395.97 27.8442 396.238 28.1491C396.506 28.4541 396.692 28.8501 396.795 29.3374C396.901 29.8213 396.898 30.4096 396.785 31.1023L396.7 31.6293H390.625L390.799 30.5156H395.413C395.482 30.1245 395.464 29.7782 395.358 29.4766C395.252 29.1716 395.07 28.9313 394.811 28.7557C394.556 28.58 394.234 28.4922 393.847 28.4922C393.449 28.4922 393.078 28.5966 392.733 28.8054C392.388 29.0142 392.1 29.281 391.868 29.6058C391.639 29.9273 391.495 30.2588 391.435 30.6001L391.261 31.6193C391.175 32.1761 391.19 32.6236 391.306 32.9616C391.426 33.2997 391.634 33.545 391.933 33.6974C392.231 33.8499 392.604 33.9261 393.051 33.9261C393.34 33.9261 393.606 33.8864 393.852 33.8068C394.1 33.724 394.321 33.603 394.513 33.4439C394.705 33.2815 394.866 33.0793 394.995 32.8374L396.357 33.0909C396.175 33.5052 395.913 33.8681 395.572 34.1797C395.23 34.4879 394.828 34.7282 394.364 34.9006C393.903 35.0696 393.393 35.1541 392.832 35.1541ZM400.043 30.4659L399.297 35H397.81L399.083 27.3636H400.51L400.301 28.6065H400.396C400.637 28.1989 400.967 27.8741 401.385 27.6321C401.806 27.3868 402.303 27.2642 402.876 27.2642C403.393 27.2642 403.828 27.3736 404.179 27.5923C404.534 27.8078 404.784 28.1293 404.93 28.5568C405.079 28.9844 405.102 29.513 404.999 30.1428L404.184 35H402.697L403.478 30.3217C403.567 29.7682 403.494 29.3357 403.259 29.0241C403.027 28.7093 402.658 28.5518 402.15 28.5518C401.806 28.5518 401.486 28.6264 401.191 28.7756C400.899 28.9247 400.652 29.1435 400.45 29.4318C400.251 29.7169 400.115 30.0616 400.043 30.4659ZM411.01 27.3636L410.816 28.5568H406.645L406.839 27.3636H411.01ZM408.256 25.5341H409.742L408.539 32.7578C408.493 33.0462 408.501 33.2633 408.564 33.4091C408.627 33.5516 408.723 33.6494 408.852 33.7024C408.985 33.7521 409.132 33.777 409.295 33.777C409.414 33.777 409.518 33.7687 409.608 33.7521C409.697 33.7356 409.769 33.7223 409.822 33.7124L409.901 34.9403C409.802 34.9735 409.668 35.0066 409.498 35.0398C409.333 35.0762 409.131 35.0961 408.892 35.0994C408.501 35.1061 408.148 35.0365 407.833 34.8906C407.518 34.7415 407.283 34.5161 407.127 34.2145C406.971 33.9096 406.933 33.5268 407.013 33.0661L408.256 25.5341ZM417.945 29.228L416.558 29.4666C416.528 29.291 416.467 29.1252 416.374 28.9695C416.285 28.8137 416.147 28.6877 415.962 28.5916C415.776 28.4922 415.529 28.4425 415.221 28.4425C414.793 28.4425 414.419 28.5402 414.097 28.7358C413.779 28.9313 413.597 29.1799 413.55 29.4815C413.507 29.7268 413.565 29.9257 413.724 30.0781C413.883 30.2273 414.164 30.3516 414.565 30.451L415.738 30.7294C416.414 30.8918 416.898 31.1454 417.19 31.4901C417.485 31.8314 417.587 32.2756 417.498 32.8224C417.422 33.2765 417.223 33.6792 416.901 34.0305C416.583 34.3819 416.175 34.657 415.678 34.8558C415.181 35.0547 414.628 35.1541 414.018 35.1541C413.149 35.1541 412.473 34.9702 411.989 34.6023C411.505 34.2344 411.257 33.714 411.244 33.0412L412.715 32.8224C412.742 33.197 412.876 33.4804 413.118 33.6726C413.363 33.8615 413.703 33.956 414.137 33.956C414.634 33.9593 415.05 33.8549 415.385 33.6428C415.72 33.4306 415.91 33.1738 415.957 32.8722C415.996 32.6368 415.943 32.4413 415.797 32.2855C415.655 32.1297 415.403 32.0104 415.042 31.9276L413.809 31.6442C413.119 31.4818 412.632 31.2199 412.347 30.8587C412.062 30.4974 411.966 30.0433 412.059 29.4964C412.132 29.049 412.321 28.6596 412.626 28.3281C412.934 27.9934 413.323 27.7332 413.794 27.5476C414.265 27.3587 414.785 27.2642 415.355 27.2642C416.187 27.2642 416.812 27.4432 417.229 27.8011C417.647 28.1558 417.886 28.6314 417.945 29.228ZM425.721 35.1541C424.995 35.1541 424.388 34.9884 423.901 34.657C423.414 34.3222 423.071 33.8549 422.872 33.255C422.677 32.6518 422.643 31.9508 422.773 31.152C422.899 30.3698 423.152 29.687 423.533 29.1037C423.918 28.5204 424.398 28.0679 424.975 27.7464C425.555 27.425 426.2 27.2642 426.909 27.2642C427.635 27.2642 428.24 27.4316 428.724 27.7663C429.211 28.1011 429.554 28.5701 429.753 29.1733C429.952 29.7765 429.986 30.4792 429.857 31.2812C429.731 32.0568 429.474 32.7363 429.087 33.3196C428.702 33.8996 428.222 34.3504 427.645 34.6719C427.068 34.9934 426.427 35.1541 425.721 35.1541ZM425.805 33.9062C426.283 33.9062 426.699 33.7803 427.053 33.5284C427.411 33.2765 427.703 32.9418 427.928 32.5241C428.154 32.1065 428.308 31.6491 428.391 31.152C428.467 30.6714 428.465 30.2322 428.386 29.8345C428.309 29.4335 428.144 29.112 427.888 28.87C427.633 28.6281 427.279 28.5071 426.824 28.5071C426.347 28.5071 425.928 28.6347 425.567 28.8899C425.209 29.1418 424.917 29.4782 424.692 29.8991C424.47 30.3201 424.319 30.7791 424.239 31.2763C424.163 31.7536 424.163 32.1927 424.239 32.5938C424.315 32.9915 424.481 33.3097 424.736 33.5483C424.992 33.7869 425.348 33.9062 425.805 33.9062ZM433.142 30.4659L432.396 35H430.91L432.183 27.3636H433.609L433.401 28.6065H433.495C433.737 28.1989 434.067 27.8741 434.484 27.6321C434.905 27.3868 435.403 27.2642 435.976 27.2642C436.493 27.2642 436.927 27.3736 437.278 27.5923C437.633 27.8078 437.883 28.1293 438.029 28.5568C438.178 28.9844 438.202 29.513 438.099 30.1428L437.283 35H435.797L436.578 30.3217C436.667 29.7682 436.594 29.3357 436.359 29.0241C436.127 28.7093 435.757 28.5518 435.25 28.5518C434.905 28.5518 434.586 28.6264 434.291 28.7756C433.999 28.9247 433.752 29.1435 433.55 29.4318C433.351 29.7169 433.215 30.0616 433.142 30.4659ZM442.449 24.8182L440.759 35H439.272L440.962 24.8182H442.449ZM443.231 37.8636C443.005 37.8636 442.805 37.8454 442.629 37.8089C442.454 37.7758 442.323 37.7393 442.236 37.6996L442.803 36.4815C443.065 36.5545 443.299 36.5826 443.504 36.5661C443.713 36.5495 443.909 36.4633 444.091 36.3075C444.273 36.1518 444.459 35.9065 444.648 35.5717L444.926 35.0696L443.43 27.3636H444.961L445.905 33.3047H445.985L448.908 27.3636H450.564L445.985 36.0092C445.77 36.4202 445.524 36.7616 445.249 37.0334C444.977 37.3085 444.672 37.5156 444.334 37.6548C444 37.794 443.632 37.8636 443.231 37.8636ZM454.253 30.7741C454.044 32.0237 453.689 33.1721 453.189 34.2195C452.692 35.2668 452.052 36.233 451.27 37.1179H449.908C450.209 36.7898 450.504 36.3871 450.793 35.9098C451.084 35.4325 451.356 34.9105 451.608 34.3438C451.863 33.7737 452.085 33.1837 452.274 32.5739C452.463 31.964 452.607 31.3641 452.707 30.7741C452.839 29.9886 452.894 29.1915 452.871 28.3828C452.851 27.5741 452.765 26.8234 452.612 26.1307C452.463 25.438 452.261 24.8729 452.006 24.4354H453.373C453.853 25.3203 454.172 26.2865 454.327 27.3338C454.483 28.3812 454.458 29.5279 454.253 30.7741Z" fill="currentColor"/>
  <path d="M512.667 186.667V197.333M491.333 197.333H544.667M502 186.667V197.333M496.667 186.667H539.333C542.279 186.667 544.667 189.055 544.667 192V224C544.667 226.946 542.279 229.333 539.333 229.333H496.667C493.721 229.333 491.333 226.946 491.333 224V192C491.333 189.055 493.721 186.667 496.667 186.667Z" stroke="currentColor" stroke-width="2" stroke-linecap="round" stroke-linejoin="round"/>
  <path d="M511.667 122.667V133.333M490.333 133.333H543.667M501 122.667V133.333M495.667 122.667H538.333C541.279 122.667 543.667 125.055 543.667 128V160C543.667 162.946 541.279 165.333 538.333 165.333H495.667C492.721 165.333 490.333 162.946 490.333 160V128C490.333 125.055 492.721 122.667 495.667 122.667Z" stroke="currentColor" stroke-width="2" stroke-linecap="round" stroke-linejoin="round"/>
  <line x1="398" y1="175" x2="440" y2="175" stroke="currentColor" stroke-width="2"/>
  <line x1="441" y1="144" x2="441" y2="208" stroke="currentColor" stroke-width="2"/>
  <path d="M473.707 145.707C474.098 145.317 474.098 144.683 473.707 144.293L467.343 137.929C466.953 137.538 466.319 137.538 465.929 137.929C465.538 138.319 465.538 138.953 465.929 139.343L471.586 145L465.929 150.657C465.538 151.047 465.538 151.681 465.929 152.071C466.319 152.462 466.953 152.462 467.343 152.071L473.707 145.707ZM441 145V146H473V145V144H441V145Z" fill="currentColor"/>
  <path d="M473.707 207.707C474.098 207.317 474.098 206.683 473.707 206.293L467.343 199.929C466.953 199.538 466.319 199.538 465.929 199.929C465.538 200.319 465.538 200.953 465.929 201.343L471.586 207L465.929 212.657C465.538 213.047 465.538 213.681 465.929 214.071C466.319 214.462 466.953 214.462 467.343 214.071L473.707 207.707ZM441 207V208H473V207V206H441V207Z" fill="currentColor"/>
  <path d="M492.297 250H491.281L494.219 242H495.219L498.156 250H497.141L494.75 243.266H494.688L492.297 250ZM492.672 246.875H496.766V247.734H492.672V246.875ZM501.543 250.125C501.043 250.125 500.602 249.999 500.219 249.746C499.836 249.491 499.536 249.132 499.32 248.668C499.104 248.202 498.996 247.651 498.996 247.016C498.996 246.385 499.104 245.839 499.32 245.375C499.536 244.911 499.837 244.553 500.223 244.301C500.608 244.048 501.053 243.922 501.559 243.922C501.949 243.922 502.258 243.987 502.484 244.117C502.714 244.245 502.888 244.391 503.008 244.555C503.13 244.716 503.225 244.849 503.293 244.953H503.371V242H504.293V250H503.402V249.078H503.293C503.225 249.187 503.129 249.326 503.004 249.492C502.879 249.656 502.701 249.803 502.469 249.934C502.237 250.061 501.928 250.125 501.543 250.125ZM501.668 249.297C502.038 249.297 502.35 249.201 502.605 249.008C502.861 248.812 503.055 248.543 503.188 248.199C503.32 247.853 503.387 247.453 503.387 247C503.387 246.552 503.322 246.16 503.191 245.824C503.061 245.486 502.868 245.223 502.613 245.035C502.358 244.845 502.043 244.75 501.668 244.75C501.277 244.75 500.952 244.85 500.691 245.051C500.434 245.249 500.24 245.518 500.109 245.859C499.982 246.198 499.918 246.578 499.918 247C499.918 247.427 499.983 247.815 500.113 248.164C500.246 248.51 500.441 248.786 500.699 248.992C500.96 249.195 501.283 249.297 501.668 249.297ZM506.109 250V244H507V244.937H507.078C507.203 244.617 507.405 244.368 507.684 244.191C507.962 244.012 508.297 243.922 508.688 243.922C509.083 243.922 509.413 244.012 509.676 244.191C509.941 244.368 510.148 244.617 510.297 244.937H510.359C510.513 244.628 510.743 244.382 511.051 244.199C511.358 244.014 511.727 243.922 512.156 243.922C512.693 243.922 513.132 244.09 513.473 244.426C513.814 244.759 513.984 245.279 513.984 245.984V250H513.062V245.984C513.062 245.542 512.941 245.225 512.699 245.035C512.457 244.845 512.172 244.75 511.844 244.75C511.422 244.75 511.095 244.878 510.863 245.133C510.632 245.385 510.516 245.706 510.516 246.094V250H509.578V245.891C509.578 245.549 509.467 245.275 509.246 245.066C509.025 244.855 508.74 244.75 508.391 244.75C508.151 244.75 507.927 244.814 507.719 244.941C507.513 245.069 507.346 245.246 507.219 245.473C507.094 245.697 507.031 245.956 507.031 246.25V250H506.109ZM515.67 250V244H516.592V250H515.67ZM516.139 243C515.959 243 515.804 242.939 515.674 242.816C515.546 242.694 515.482 242.547 515.482 242.375C515.482 242.203 515.546 242.056 515.674 241.934C515.804 241.811 515.959 241.75 516.139 241.75C516.318 241.75 516.472 241.811 516.6 241.934C516.73 242.056 516.795 242.203 516.795 242.375C516.795 242.547 516.73 242.694 516.6 242.816C516.472 242.939 516.318 243 516.139 243ZM519.202 246.391V250H518.28V244H519.171V244.937H519.249C519.39 244.633 519.603 244.388 519.89 244.203C520.176 244.016 520.546 243.922 520.999 243.922C521.405 243.922 521.761 244.005 522.065 244.172C522.37 244.336 522.607 244.586 522.776 244.922C522.946 245.255 523.03 245.677 523.03 246.188V250H522.108V246.25C522.108 245.779 521.986 245.411 521.741 245.148C521.496 244.883 521.16 244.75 520.733 244.75C520.439 244.75 520.176 244.814 519.944 244.941C519.715 245.069 519.534 245.255 519.401 245.5C519.269 245.745 519.202 246.042 519.202 246.391ZM528.262 250H527.246L530.184 242H531.184L534.121 250H533.105L530.715 243.266H530.652L528.262 250ZM528.637 246.875H532.73V247.734H528.637V246.875ZM535.242 252.25V244H536.133V244.953H536.242C536.31 244.849 536.404 244.716 536.523 244.555C536.646 244.391 536.82 244.245 537.047 244.117C537.276 243.987 537.586 243.922 537.977 243.922C538.482 243.922 538.927 244.048 539.313 244.301C539.698 244.553 539.999 244.911 540.215 245.375C540.431 245.839 540.539 246.385 540.539 247.016C540.539 247.651 540.431 248.202 540.215 248.668C539.999 249.132 539.699 249.491 539.316 249.746C538.934 249.999 538.492 250.125 537.992 250.125C537.607 250.125 537.298 250.061 537.066 249.934C536.835 249.803 536.656 249.656 536.531 249.492C536.406 249.326 536.31 249.187 536.242 249.078H536.164V252.25H535.242ZM536.148 247C536.148 247.453 536.215 247.853 536.348 248.199C536.48 248.543 536.674 248.812 536.93 249.008C537.185 249.201 537.497 249.297 537.867 249.297C538.253 249.297 538.574 249.195 538.832 248.992C539.092 248.786 539.288 248.51 539.418 248.164C539.551 247.815 539.617 247.427 539.617 247C539.617 246.578 539.552 246.198 539.422 245.859C539.294 245.518 539.1 245.249 538.84 245.051C538.582 244.85 538.258 244.75 537.867 244.75C537.492 244.75 537.177 244.845 536.922 245.035C536.667 245.223 536.474 245.486 536.344 245.824C536.214 246.16 536.148 246.552 536.148 247ZM541.945 252.25V244H542.836V244.953H542.945C543.013 244.849 543.107 244.716 543.227 244.555C543.349 244.391 543.523 244.245 543.75 244.117C543.979 243.987 544.289 243.922 544.68 243.922C545.185 243.922 545.63 244.048 546.016 244.301C546.401 244.553 546.702 244.911 546.918 245.375C547.134 245.839 547.242 246.385 547.242 247.016C547.242 247.651 547.134 248.202 546.918 248.668C546.702 249.132 546.402 249.491 546.02 249.746C545.637 249.999 545.195 250.125 544.695 250.125C544.31 250.125 544.001 250.061 543.77 249.934C543.538 249.803 543.359 249.656 543.234 249.492C543.109 249.326 543.013 249.187 542.945 249.078H542.867V252.25H541.945ZM542.852 247C542.852 247.453 542.918 247.853 543.051 248.199C543.184 248.543 543.378 248.812 543.633 249.008C543.888 249.201 544.201 249.297 544.57 249.297C544.956 249.297 545.277 249.195 545.535 248.992C545.796 248.786 545.991 248.51 546.121 248.164C546.254 247.815 546.32 247.427 546.32 247C546.32 246.578 546.255 246.198 546.125 245.859C545.997 245.518 545.803 245.249 545.543 245.051C545.285 244.85 544.961 244.75 544.57 244.75C544.195 244.75 543.88 244.845 543.625 245.035C543.37 245.223 543.177 245.486 543.047 245.824C542.917 246.16 542.852 246.552 542.852 247Z" fill="currentColor"/>
  <path d="M489.969 108V100H490.938V107.141H494.656V108H489.969ZM498.469 108.125C497.927 108.125 497.452 107.996 497.043 107.738C496.637 107.48 496.319 107.12 496.09 106.656C495.863 106.193 495.75 105.651 495.75 105.031C495.75 104.406 495.863 103.861 496.09 103.395C496.319 102.928 496.637 102.566 497.043 102.309C497.452 102.051 497.927 101.922 498.469 101.922C499.01 101.922 499.484 102.051 499.891 102.309C500.299 102.566 500.617 102.928 500.844 103.395C501.073 103.861 501.188 104.406 501.188 105.031C501.188 105.651 501.073 106.193 500.844 106.656C500.617 107.12 500.299 107.48 499.891 107.738C499.484 107.996 499.01 108.125 498.469 108.125ZM498.469 107.297C498.88 107.297 499.219 107.191 499.484 106.98C499.75 106.77 499.947 106.492 500.074 106.148C500.202 105.805 500.266 105.432 500.266 105.031C500.266 104.63 500.202 104.257 500.074 103.91C499.947 103.564 499.75 103.284 499.484 103.07C499.219 102.857 498.88 102.75 498.469 102.75C498.057 102.75 497.719 102.857 497.453 103.07C497.188 103.284 496.991 103.564 496.863 103.91C496.736 104.257 496.672 104.63 496.672 105.031C496.672 105.432 496.736 105.805 496.863 106.148C496.991 106.492 497.188 106.77 497.453 106.98C497.719 107.191 498.057 107.297 498.469 107.297ZM505.017 110.375C504.571 110.375 504.188 110.318 503.868 110.203C503.548 110.091 503.281 109.943 503.067 109.758C502.856 109.576 502.688 109.38 502.563 109.172L503.298 108.656C503.381 108.766 503.487 108.891 503.614 109.031C503.742 109.174 503.916 109.298 504.138 109.402C504.362 109.509 504.655 109.562 505.017 109.562C505.501 109.562 505.901 109.445 506.216 109.211C506.531 108.977 506.688 108.609 506.688 108.109V106.891H506.61C506.543 107 506.446 107.135 506.321 107.297C506.199 107.456 506.022 107.598 505.79 107.723C505.561 107.845 505.251 107.906 504.86 107.906C504.376 107.906 503.941 107.792 503.556 107.563C503.173 107.333 502.869 107 502.646 106.562C502.424 106.125 502.313 105.594 502.313 104.969C502.313 104.354 502.422 103.819 502.638 103.363C502.854 102.905 503.155 102.551 503.54 102.301C503.925 102.048 504.371 101.922 504.876 101.922C505.267 101.922 505.576 101.987 505.806 102.117C506.037 102.245 506.215 102.391 506.337 102.555C506.462 102.716 506.558 102.849 506.626 102.953H506.72V102H507.61V108.172C507.61 108.688 507.493 109.107 507.259 109.43C507.027 109.755 506.715 109.993 506.321 110.145C505.931 110.298 505.496 110.375 505.017 110.375ZM504.985 107.078C505.355 107.078 505.668 106.993 505.923 106.824C506.178 106.655 506.372 106.411 506.505 106.094C506.638 105.776 506.704 105.396 506.704 104.953C506.704 104.521 506.639 104.139 506.509 103.809C506.379 103.478 506.186 103.219 505.931 103.031C505.675 102.844 505.36 102.75 504.985 102.75C504.595 102.75 504.269 102.849 504.009 103.047C503.751 103.245 503.557 103.51 503.427 103.844C503.299 104.177 503.235 104.547 503.235 104.953C503.235 105.37 503.3 105.738 503.431 106.059C503.563 106.376 503.759 106.626 504.017 106.809C504.277 106.988 504.6 107.078 504.985 107.078ZM509.298 108V102H510.22V108H509.298ZM509.767 101C509.587 101 509.432 100.939 509.302 100.816C509.174 100.694 509.11 100.547 509.11 100.375C509.11 100.203 509.174 100.056 509.302 99.9336C509.432 99.8112 509.587 99.75 509.767 99.75C509.946 99.75 510.1 99.8112 510.228 99.9336C510.358 100.056 510.423 100.203 510.423 100.375C510.423 100.547 510.358 100.694 510.228 100.816C510.1 100.939 509.946 101 509.767 101ZM512.83 104.391V108H511.908V102H512.799V102.937H512.877C513.018 102.633 513.231 102.388 513.518 102.203C513.804 102.016 514.174 101.922 514.627 101.922C515.033 101.922 515.389 102.005 515.693 102.172C515.998 102.336 516.235 102.586 516.404 102.922C516.574 103.255 516.658 103.677 516.658 104.188V108H515.736V104.25C515.736 103.779 515.614 103.411 515.369 103.148C515.124 102.883 514.788 102.75 514.361 102.75C514.067 102.75 513.804 102.814 513.572 102.941C513.343 103.069 513.162 103.255 513.029 103.5C512.896 103.745 512.83 104.042 512.83 104.391ZM521.89 108H520.874L523.812 100H524.812L527.749 108H526.733L524.343 101.266H524.28L521.89 108ZM522.265 104.875H526.358V105.734H522.265V104.875ZM528.87 110.25V102H529.761V102.953H529.87C529.938 102.849 530.032 102.716 530.151 102.555C530.274 102.391 530.448 102.245 530.675 102.117C530.904 101.987 531.214 101.922 531.604 101.922C532.11 101.922 532.555 102.048 532.94 102.301C533.326 102.553 533.627 102.911 533.843 103.375C534.059 103.839 534.167 104.385 534.167 105.016C534.167 105.651 534.059 106.202 533.843 106.668C533.627 107.132 533.327 107.491 532.944 107.746C532.562 107.999 532.12 108.125 531.62 108.125C531.235 108.125 530.926 108.061 530.694 107.934C530.463 107.803 530.284 107.656 530.159 107.492C530.034 107.326 529.938 107.187 529.87 107.078H529.792V110.25H528.87ZM529.776 105C529.776 105.453 529.843 105.853 529.976 106.199C530.108 106.543 530.302 106.812 530.558 107.008C530.813 107.201 531.125 107.297 531.495 107.297C531.881 107.297 532.202 107.195 532.46 106.992C532.72 106.786 532.916 106.51 533.046 106.164C533.179 105.815 533.245 105.427 533.245 105C533.245 104.578 533.18 104.198 533.05 103.859C532.922 103.518 532.728 103.249 532.468 103.051C532.21 102.85 531.886 102.75 531.495 102.75C531.12 102.75 530.805 102.845 530.55 103.035C530.295 103.223 530.102 103.486 529.972 103.824C529.841 104.16 529.776 104.552 529.776 105ZM535.573 110.25V102H536.464V102.953H536.573C536.641 102.849 536.735 102.716 536.854 102.555C536.977 102.391 537.151 102.245 537.378 102.117C537.607 101.987 537.917 101.922 538.308 101.922C538.813 101.922 539.258 102.048 539.644 102.301C540.029 102.553 540.33 102.911 540.546 103.375C540.762 103.839 540.87 104.385 540.87 105.016C540.87 105.651 540.762 106.202 540.546 106.668C540.33 107.132 540.03 107.491 539.647 107.746C539.265 107.999 538.823 108.125 538.323 108.125C537.938 108.125 537.629 108.061 537.397 107.934C537.166 107.803 536.987 107.656 536.862 107.492C536.737 107.326 536.641 107.187 536.573 107.078H536.495V110.25H535.573ZM536.479 105C536.479 105.453 536.546 105.853 536.679 106.199C536.812 106.543 537.006 106.812 537.261 107.008C537.516 107.201 537.828 107.297 538.198 107.297C538.584 107.297 538.905 107.195 539.163 106.992C539.424 106.786 539.619 106.51 539.749 106.164C539.882 105.815 539.948 105.427 539.948 105C539.948 104.578 539.883 104.198 539.753 103.859C539.625 103.518 539.431 103.249 539.171 103.051C538.913 102.85 538.589 102.75 538.198 102.75C537.823 102.75 537.508 102.845 537.253 103.035C536.998 103.223 536.805 103.486 536.675 103.824C536.545 104.16 536.479 104.552 536.479 105Z" fill="currentColor"/>
  </g>
</svg>
